<svg width="17" height="18" viewBox="0 0 17 18" fill="none" xmlns="http://www.w3.org/2000/svg">
<path d="M16.0874 6.23597C15.9991 6.28333 13.8963 7.28264 13.8963 9.49835C13.9954 12.0252 16.5499 12.9114 16.5938 12.9114C16.5499 12.9587 16.2081 14.1186 15.1955 15.3343C14.3918 16.3816 13.4999 17.4375 12.1454 17.4375C10.857 17.4375 10.3945 16.7395 8.9079 16.7395C7.31141 16.7395 6.85968 17.4375 5.63736 17.4375C4.28289 17.4375 3.32485 16.325 2.47741 15.2876C1.37646 13.9298 0.440681 11.7989 0.407645 9.75294C0.385382 8.66876 0.628123 7.60303 1.24431 6.69781C2.11402 5.43406 3.6667 4.57619 5.3623 4.5479C6.66147 4.51039 7.81772 5.31169 8.61058 5.31169C9.3704 5.31169 10.7909 4.5479 12.3982 4.5479C13.092 4.54852 14.942 4.72747 16.0874 6.23597ZM8.5007 4.33144C8.26945 3.34135 8.9079 2.35126 9.50254 1.7197C10.2624 0.955913 11.4624 0.4375 12.4973 0.4375C12.5634 1.42759 12.1447 2.39861 11.3964 3.10582C10.7249 3.8696 9.56862 4.44459 8.5007 4.33144Z" fill="url(#paint0_linear_2614_12)"/>
<defs>
<linearGradient id="paint0_linear_2614_12" x1="8.5" y1="0.4375" x2="8.5" y2="17.4375" gradientUnits="userSpaceOnUse">
<stop stop-color="#293645"/>
<stop offset="1" stop-color="#0F1011"/>
</linearGradient>
</defs>
</svg>
