<svg width="18" height="18" viewBox="0 0 18 18" fill="none" xmlns="http://www.w3.org/2000/svg">
<path d="M14.9481 0.627795C14.7496 0.42819 14.5135 0.26993 14.2534 0.162171C13.9934 0.0544122 13.7145 -0.000705625 13.433 6.81941e-06H9C8.43188 0.000673748 7.88722 0.226653 7.4855 0.628371C7.08378 1.03009 6.85781 1.57475 6.85714 2.14286V12.4286C6.85781 12.9967 7.08378 13.5413 7.4855 13.9431C7.88722 14.3448 8.43188 14.5708 9 14.5714H15.8571C16.4253 14.5708 16.97 14.3449 17.3717 13.9431C17.7734 13.5414 17.9994 12.9967 18 12.4286V4.56738C18.0008 4.2858 17.9458 4.00685 17.838 3.74671C17.7303 3.48657 17.5719 3.2504 17.3722 3.05191L14.9481 0.627795ZM13.7143 0.891521C13.9516 0.944347 14.1691 1.06298 14.3421 1.23382L16.7662 3.65793C16.9381 3.83023 17.0571 4.04803 17.1094 4.28572H15C14.6591 4.28535 14.3323 4.14977 14.0913 3.90873C13.8502 3.66769 13.7147 3.34088 13.7143 3.00001V0.891521ZM17.1428 12.4286C17.1425 12.7694 17.0069 13.0963 16.7659 13.3373C16.5248 13.5783 16.198 13.7139 15.8571 13.7143H9C8.65912 13.7139 8.33231 13.5783 8.09127 13.3373C7.85023 13.0963 7.71465 12.7694 7.71428 12.4286V2.14286C7.71465 1.80198 7.85023 1.47517 8.09127 1.23414C8.33231 0.9931 8.65912 0.857521 9 0.857149H12.8571V3.00001C12.8577 3.56814 13.0837 4.11284 13.4854 4.51457C13.8872 4.91631 14.4319 5.14226 15 5.14286H17.1428V12.4286ZM0 15.8571V5.57143C0.000666929 5.00332 0.226646 4.45866 0.628365 4.05694C1.03008 3.65522 1.57474 3.42924 2.14286 3.42858H5.57143V4.28572H2.14286C1.80198 4.28609 1.47517 4.42167 1.23413 4.66271C0.993093 4.90374 0.857515 5.23055 0.857142 5.57143V15.8571C0.857515 16.198 0.993093 16.5248 1.23413 16.7659C1.47517 17.0069 1.80198 17.1425 2.14286 17.1429H9C9.34087 17.1425 9.66768 17.0069 9.90872 16.7659C10.1498 16.5248 10.2853 16.198 10.2857 15.8571H11.1429C11.1423 16.4253 10.9163 16.97 10.5146 17.3717C10.1128 17.7734 9.56813 17.9994 9 18H2.14286C1.57474 17.9993 1.03008 17.7733 0.628365 17.3716C0.226646 16.9699 0.000666929 16.4253 0 15.8571Z" fill="black"/>
</svg>
