<svg width="12" height="12" viewBox="0 0 12 12" fill="none" xmlns="http://www.w3.org/2000/svg">
<g clip-path="url(#clip0_275_852)">
<path d="M10.222 3.67535C10.235 3.66778 10.2457 3.65694 10.2532 3.64392C10.2607 3.6309 10.2646 3.61614 10.2646 3.60112C10.2646 3.5861 10.2607 3.57135 10.2532 3.55832C10.2457 3.5453 10.235 3.53446 10.222 3.52689L6.94046 1.62037C6.73049 1.49866 6.49211 1.43457 6.24942 1.43457C6.00673 1.43457 5.76834 1.49866 5.55837 1.62037L2.2775 3.52689C2.26452 3.53446 2.25376 3.5453 2.24628 3.55832C2.2388 3.57135 2.23486 3.5861 2.23486 3.60112C2.23486 3.61614 2.2388 3.6309 2.24628 3.64392C2.25376 3.65694 2.26452 3.66778 2.2775 3.67535L6.20656 5.98664C6.21977 5.99442 6.23483 5.99853 6.25017 5.99853C6.26551 5.99853 6.28057 5.99442 6.29378 5.98664L10.222 3.67535Z" fill="white"/>
<path d="M1.90967 4.25956C1.89656 4.25199 1.88169 4.24802 1.86656 4.24805C1.85143 4.24807 1.83657 4.25209 1.82349 4.2597C1.81041 4.26731 1.79957 4.27824 1.79207 4.29138C1.78456 4.30452 1.78067 4.31941 1.78076 4.33454V8.07046C1.78109 8.25049 1.82854 8.4273 1.9184 8.58331C2.00825 8.73932 2.13738 8.86908 2.29295 8.9597L5.77686 11.0486C5.78991 11.0562 5.80473 11.0601 5.8198 11.0601C5.83488 11.0601 5.8497 11.0562 5.86276 11.0486C5.87582 11.0411 5.88667 11.0303 5.89422 11.0172C5.90177 11.0042 5.90575 10.9894 5.90576 10.9743V6.63981C5.90575 6.62474 5.90177 6.60994 5.89423 6.5969C5.88669 6.58385 5.87585 6.57301 5.86279 6.56548L1.90967 4.25956Z" fill="white"/>
<path d="M6.59326 6.65497V10.9733C6.59328 10.9884 6.59726 11.0032 6.60481 11.0163C6.61236 11.0293 6.62321 11.0402 6.63627 11.0477C6.64933 11.0552 6.66414 11.0592 6.67922 11.0592C6.6943 11.0592 6.70911 11.0552 6.72217 11.0477L10.2059 8.95874C10.3613 8.86824 10.4904 8.73866 10.5803 8.58286C10.6702 8.42705 10.7177 8.25045 10.7183 8.07058V4.33466C10.7182 4.3196 10.7142 4.30482 10.7066 4.2918C10.6991 4.27877 10.6882 4.26797 10.6752 4.26046C10.6621 4.25295 10.6473 4.24901 10.6322 4.24902C10.6172 4.24904 10.6024 4.25301 10.5894 4.26054L6.63623 6.58085C6.62321 6.58837 6.61239 6.59917 6.60485 6.61217C6.59731 6.62518 6.59331 6.63994 6.59326 6.65497Z" fill="white"/>
</g>
<defs>
<clipPath id="clip0_275_852">
<rect width="11" height="11" fill="white" transform="translate(0.749512 0.747559)"/>
</clipPath>
</defs>
</svg>
