<svg width="186" height="37" viewBox="0 0 186 37" fill="none" xmlns="http://www.w3.org/2000/svg">
<rect y="0.59729" width="186" height="35.6195" rx="12" fill="white"/>
<g clip-path="url(#clip0_4_829)">
<g clip-path="url(#clip1_4_829)">
<path d="M51.4961 15.9568V20.6541H52.8828C53.5924 20.6541 54.0872 20.3042 54.3672 19.6043C54.5202 19.2202 54.5967 18.7628 54.5967 18.2322C54.5967 17.4998 54.4811 16.9383 54.25 16.5477C54.0221 16.1538 53.5664 15.9568 52.8828 15.9568H51.4961ZM53.1367 14.7068C53.5827 14.7134 53.9538 14.7654 54.25 14.8631C54.7546 15.0291 55.1631 15.3335 55.4756 15.7762C55.7262 16.1343 55.8971 16.5216 55.9883 16.9383C56.0794 17.355 56.125 17.7521 56.125 18.1297C56.125 19.0867 55.9329 19.8973 55.5488 20.5613C55.028 21.4565 54.224 21.9041 53.1367 21.9041H50.0361V14.7068H53.1367ZM60.4463 20.8299C61.042 20.8299 61.514 20.6102 61.8623 20.1707C62.2139 19.7313 62.3896 19.1063 62.3896 18.2957C62.3896 17.4884 62.2139 16.8651 61.8623 16.4256C61.514 15.9829 61.042 15.7615 60.4463 15.7615C59.8506 15.7615 59.3753 15.9813 59.0205 16.4207C58.6657 16.8602 58.4883 17.4852 58.4883 18.2957C58.4883 19.1063 58.6657 19.7313 59.0205 20.1707C59.3753 20.6102 59.8506 20.8299 60.4463 20.8299ZM63.8936 18.2957C63.8936 19.588 63.5306 20.5776 62.8047 21.2645C62.2611 21.8244 61.4749 22.1043 60.4463 22.1043C59.4176 22.1043 58.6315 21.8244 58.0879 21.2645C57.3587 20.5776 56.9941 19.588 56.9941 18.2957C56.9941 16.9774 57.3587 15.9878 58.0879 15.327C58.6315 14.7671 59.4176 14.4871 60.4463 14.4871C61.4749 14.4871 62.2611 14.7671 62.8047 15.327C63.5306 15.9878 63.8936 16.9774 63.8936 18.2957ZM64.7334 18.3641C64.7334 17.1076 65.0703 16.1391 65.7441 15.4588C66.3301 14.8664 67.0755 14.5701 67.9805 14.5701C69.1914 14.5701 70.0768 14.9673 70.6367 15.7615C70.946 16.2075 71.112 16.6551 71.1348 17.1043H69.6309C69.5332 16.7593 69.4079 16.4988 69.2549 16.3231C68.9814 16.0106 68.5762 15.8543 68.0391 15.8543C67.4922 15.8543 67.0609 16.0757 66.7451 16.5184C66.4294 16.9578 66.2715 17.5812 66.2715 18.3885C66.2715 19.1958 66.4375 19.8012 66.7695 20.2049C67.1048 20.6053 67.5296 20.8055 68.0439 20.8055C68.5713 20.8055 68.9733 20.633 69.25 20.2879C69.403 20.1024 69.5299 19.824 69.6309 19.4529H71.1201C70.9899 20.2374 70.6562 20.8755 70.1191 21.367C69.5853 21.8585 68.9001 22.1043 68.0635 22.1043C67.0283 22.1043 66.2145 21.7723 65.6221 21.1082C65.0296 20.4409 64.7334 19.5262 64.7334 18.3641ZM72.2725 14.7068H73.8008V19.1307C73.8008 19.6255 73.8594 19.9868 73.9766 20.2147C74.1589 20.6183 74.556 20.8201 75.168 20.8201C75.7767 20.8201 76.1722 20.6183 76.3545 20.2147C76.4717 19.9868 76.5303 19.6255 76.5303 19.1307V14.7068H78.0586V19.1307C78.0586 19.8957 77.9398 20.4914 77.7021 20.9178C77.2594 21.699 76.4147 22.0897 75.168 22.0897C73.9212 22.0897 73.0749 21.699 72.6289 20.9178C72.3913 20.4914 72.2725 19.8957 72.2725 19.1307V14.7068ZM84.2695 14.7068H86.4326V21.9041H85.0312V17.0359C85.0312 16.896 85.0329 16.7007 85.0361 16.45C85.0394 16.1961 85.041 16.0008 85.041 15.8641L83.6787 21.9041H82.2188L80.8662 15.8641C80.8662 16.0008 80.8678 16.1961 80.8711 16.45C80.8743 16.7007 80.876 16.896 80.876 17.0359V21.9041H79.4746V14.7068H81.6621L82.9707 20.366L84.2695 14.7068ZM93.1514 15.9813H89.3428V17.5096H92.8389V18.7596H89.3428V20.6102H93.3271V21.9041H87.873V14.7068H93.1514V15.9813ZM94.4746 14.7068H96.0518L98.918 19.7313V14.7068H100.319V21.9041H98.8154L95.876 16.7918V21.9041H94.4746V14.7068ZM106.955 14.7068V15.9813H104.802V21.9041H103.288V15.9813H101.125V14.7068H106.955ZM109.064 19.1844H110.891L109.992 16.3524L109.064 19.1844ZM109.157 14.7068H110.856L113.405 21.9041H111.774L111.311 20.4246H108.659L108.161 21.9041H106.589L109.157 14.7068ZM118.811 14.7068V15.9813H116.657V21.9041H115.144V15.9813H112.98V14.7068H118.811ZM121.071 21.9041H119.577V14.7068H121.071V21.9041ZM125.661 20.8299C126.257 20.8299 126.729 20.6102 127.077 20.1707C127.429 19.7313 127.604 19.1063 127.604 18.2957C127.604 17.4884 127.429 16.8651 127.077 16.4256C126.729 15.9829 126.257 15.7615 125.661 15.7615C125.065 15.7615 124.59 15.9813 124.235 16.4207C123.881 16.8602 123.703 17.4852 123.703 18.2957C123.703 19.1063 123.881 19.7313 124.235 20.1707C124.59 20.6102 125.065 20.8299 125.661 20.8299ZM129.108 18.2957C129.108 19.588 128.745 20.5776 128.02 21.2645C127.476 21.8244 126.69 22.1043 125.661 22.1043C124.632 22.1043 123.846 21.8244 123.303 21.2645C122.574 20.5776 122.209 19.588 122.209 18.2957C122.209 16.9774 122.574 15.9878 123.303 15.327C123.846 14.7671 124.632 14.4871 125.661 14.4871C126.69 14.4871 127.476 14.7671 128.02 15.327C128.745 15.9878 129.108 16.9774 129.108 18.2957ZM130.236 14.7068H131.813L134.68 19.7313V14.7068H136.081V21.9041H134.577L131.638 16.7918V21.9041H130.236V14.7068Z" fill="#2D3748"/>
</g>
<g clip-path="url(#clip2_4_829)">
<rect x="92.9971" y="30.4041" width="0.0057526" height="0.0057526" fill="#C4C4C4"/>
</g>
</g>
<defs>
<clipPath id="clip0_4_829">
<rect width="87.5" height="24.0058" fill="white" transform="translate(49.25 6.40411)"/>
</clipPath>
<clipPath id="clip1_4_829">
<rect width="87.5" height="15" fill="white" transform="translate(49.25 10.9041)"/>
</clipPath>
<clipPath id="clip2_4_829">
<rect width="24.0058" height="0.00576161" fill="white" transform="translate(80.9971 30.4041)"/>
</clipPath>
</defs>
</svg>
