<svg width="150" height="39" viewBox="0 0 150 39" fill="none" xmlns="http://www.w3.org/2000/svg">
<rect width="150" height="39" rx="12" fill="#FF6A00"/>
<g clip-path="url(#clip0_351_3002)">
<g clip-path="url(#clip1_351_3002)">
<path d="M42.8887 22.9971H40.4242V15.7243H42.9384C43.6605 15.7243 44.2808 15.8699 44.7992 16.1611C45.3201 16.45 45.7202 16.8654 45.9995 17.4076C46.2789 17.9497 46.4186 18.5984 46.4186 19.3536C46.4186 20.1112 46.2777 20.7622 45.996 21.3067C45.7166 21.8512 45.313 22.2691 44.785 22.5603C44.2595 22.8515 43.6274 22.9971 42.8887 22.9971ZM41.7417 21.8572H42.8248C43.3314 21.8572 43.754 21.7648 44.0926 21.5802C44.4311 21.3931 44.6856 21.115 44.8561 20.7456C45.0265 20.374 45.1117 19.9099 45.1117 19.3536C45.1117 18.7973 45.0265 18.3356 44.8561 17.9687C44.6856 17.5993 44.4335 17.3235 44.0997 17.1412C43.7682 16.9566 43.3563 16.8643 42.8639 16.8643H41.7417V21.8572ZM49.9928 23.1036C49.4601 23.1036 48.9985 22.9864 48.6078 22.752C48.2172 22.5177 47.9142 22.1898 47.6987 21.7684C47.4857 21.347 47.3791 20.8546 47.3791 20.2911C47.3791 19.7277 47.4857 19.234 47.6987 18.8103C47.9142 18.3865 48.2172 18.0574 48.6078 17.8231C48.9985 17.5887 49.4601 17.4715 49.9928 17.4715C50.5254 17.4715 50.9871 17.5887 51.3777 17.8231C51.7683 18.0574 52.0702 18.3865 52.2833 18.8103C52.4987 19.234 52.6064 19.7277 52.6064 20.2911C52.6064 20.8546 52.4987 21.347 52.2833 21.7684C52.0702 22.1898 51.7683 22.5177 51.3777 22.752C50.9871 22.9864 50.5254 23.1036 49.9928 23.1036ZM49.9999 22.0738C50.2887 22.0738 50.5302 21.9945 50.7243 21.8358C50.9184 21.6749 51.0629 21.4594 51.1575 21.1895C51.2546 20.9197 51.3031 20.619 51.3031 20.2876C51.3031 19.9537 51.2546 19.6519 51.1575 19.382C51.0629 19.1098 50.9184 18.8931 50.7243 18.7322C50.5302 18.5712 50.2887 18.4907 49.9999 18.4907C49.704 18.4907 49.4577 18.5712 49.2612 18.7322C49.0671 18.8931 48.9215 19.1098 48.8245 19.382C48.7298 19.6519 48.6824 19.9537 48.6824 20.2876C48.6824 20.619 48.7298 20.9197 48.8245 21.1895C48.9215 21.4594 49.0671 21.6749 49.2612 21.8358C49.4577 21.9945 49.704 22.0738 49.9999 22.0738ZM54.667 22.9971L53.1258 17.5425H54.4361L55.3949 21.3778H55.4447L56.4248 17.5425H57.7209L58.701 21.3564H58.7543L59.6989 17.5425H61.0128L59.4681 22.9971H58.1293L57.1066 19.311H57.032L56.0093 22.9971H54.667ZM63.1959 19.801V22.9971H61.9104V17.5425H63.1391V18.4694H63.203C63.3285 18.164 63.5285 17.9213 63.8031 17.7414C64.0801 17.5615 64.4222 17.4715 64.8294 17.4715C65.2058 17.4715 65.5337 17.552 65.8131 17.713C66.0948 17.874 66.3126 18.1072 66.4665 18.4126C66.6227 18.718 66.6997 19.0885 66.6973 19.5241V22.9971H65.4118V19.7229C65.4118 19.3583 65.3171 19.0731 65.1277 18.8671C64.9407 18.6611 64.6815 18.5581 64.35 18.5581C64.1251 18.5581 63.9251 18.6079 63.7499 18.7073C63.5771 18.8044 63.4409 18.9452 63.3415 19.1299C63.2444 19.3145 63.1959 19.5383 63.1959 19.801ZM69.2897 15.7243V22.9971H68.0041V15.7243H69.2897ZM72.9908 23.1036C72.4582 23.1036 71.9965 22.9864 71.6059 22.752C71.2153 22.5177 70.9122 22.1898 70.6968 21.7684C70.4837 21.347 70.3772 20.8546 70.3772 20.2911C70.3772 19.7277 70.4837 19.234 70.6968 18.8103C70.9122 18.3865 71.2153 18.0574 71.6059 17.8231C71.9965 17.5887 72.4582 17.4715 72.9908 17.4715C73.5235 17.4715 73.9851 17.5887 74.3758 17.8231C74.7664 18.0574 75.0682 18.3865 75.2813 18.8103C75.4967 19.234 75.6045 19.7277 75.6045 20.2911C75.6045 20.8546 75.4967 21.347 75.2813 21.7684C75.0682 22.1898 74.7664 22.5177 74.3758 22.752C73.9851 22.9864 73.5235 23.1036 72.9908 23.1036ZM72.9979 22.0738C73.2868 22.0738 73.5282 21.9945 73.7224 21.8358C73.9165 21.6749 74.0609 21.4594 74.1556 21.1895C74.2527 20.9197 74.3012 20.619 74.3012 20.2876C74.3012 19.9537 74.2527 19.6519 74.1556 19.382C74.0609 19.1098 73.9165 18.8931 73.7224 18.7322C73.5282 18.5712 73.2868 18.4907 72.9979 18.4907C72.702 18.4907 72.4558 18.5712 72.2593 18.7322C72.0652 18.8931 71.9196 19.1098 71.8225 19.382C71.7278 19.6519 71.6805 19.9537 71.6805 20.2876C71.6805 20.619 71.7278 20.9197 71.8225 21.1895C71.9196 21.4594 72.0652 21.6749 72.2593 21.8358C72.4558 21.9945 72.702 22.0738 72.9979 22.0738ZM78.2651 23.1072C77.9195 23.1072 77.6082 23.0456 77.3312 22.9225C77.0566 22.797 76.8388 22.6124 76.6778 22.3685C76.5192 22.1247 76.4399 21.824 76.4399 21.4665C76.4399 21.1588 76.4967 20.9043 76.6103 20.703C76.724 20.5018 76.879 20.3408 77.0755 20.2201C77.272 20.0993 77.4934 20.0082 77.7396 19.9466C77.9882 19.8827 78.245 19.8366 78.5102 19.8081C78.8298 19.775 79.089 19.7454 79.2879 19.7194C79.4867 19.691 79.6312 19.6483 79.7211 19.5915C79.8134 19.5323 79.8596 19.4412 79.8596 19.3181V19.2968C79.8596 19.0293 79.7803 18.8221 79.6217 18.6753C79.4631 18.5286 79.2346 18.4552 78.9363 18.4552C78.6214 18.4552 78.3717 18.5238 78.187 18.6611C78.0047 18.7984 77.8816 18.9606 77.8177 19.1476L76.6174 18.9772C76.7121 18.6457 76.8684 18.3688 77.0862 18.1462C77.304 17.9213 77.5703 17.7532 77.8852 17.642C78.2 17.5283 78.5481 17.4715 78.9292 17.4715C79.192 17.4715 79.4536 17.5023 79.714 17.5638C79.9744 17.6254 80.2124 17.7272 80.4278 17.8692C80.6432 18.0089 80.816 18.1995 80.9463 18.441C81.0788 18.6824 81.1451 18.9843 81.1451 19.3465V22.9971H79.9093V22.2478H79.8667C79.7886 22.3993 79.6785 22.5413 79.5365 22.6739C79.3968 22.8041 79.2204 22.9095 79.0073 22.99C78.7966 23.0681 78.5492 23.1072 78.2651 23.1072ZM78.599 22.1626C78.857 22.1626 79.0807 22.1117 79.2701 22.0099C79.4595 21.9057 79.6051 21.7684 79.7069 21.5979C79.8111 21.4275 79.8632 21.2416 79.8632 21.0404V20.3976C79.8229 20.4308 79.7543 20.4616 79.6572 20.49C79.5625 20.5184 79.456 20.5432 79.3376 20.5645C79.2192 20.5858 79.102 20.6048 78.986 20.6214C78.87 20.6379 78.7694 20.6521 78.6842 20.664C78.4924 20.69 78.3208 20.7326 78.1693 20.7918C78.0178 20.851 77.8982 20.9339 77.8106 21.0404C77.723 21.1446 77.6792 21.2795 77.6792 21.4452C77.6792 21.682 77.7656 21.8607 77.9384 21.9814C78.1113 22.1022 78.3314 22.1626 78.599 22.1626ZM84.4619 23.093C84.0334 23.093 83.6499 22.9829 83.3113 22.7627C82.9728 22.5425 82.7053 22.2229 82.5088 21.8039C82.3123 21.3849 82.214 20.8759 82.214 20.2769C82.214 19.6708 82.3134 19.1595 82.5123 18.7428C82.7135 18.3238 82.9846 18.0077 83.3255 17.7947C83.6664 17.5792 84.0464 17.4715 84.4654 17.4715C84.785 17.4715 85.0478 17.526 85.2538 17.6349C85.4598 17.7414 85.6231 17.8704 85.7438 18.0219C85.8646 18.1711 85.9581 18.3119 86.0244 18.4445H86.0776V15.7243H87.3667V22.9971H86.1025V22.1377H86.0244C85.9581 22.2703 85.8622 22.4111 85.7367 22.5603C85.6113 22.7071 85.4455 22.8325 85.2396 22.9367C85.0336 23.0409 84.7744 23.093 84.4619 23.093ZM84.8205 22.0383C85.0928 22.0383 85.3248 21.9649 85.5166 21.8181C85.7083 21.6689 85.8539 21.4618 85.9534 21.1966C86.0528 20.9315 86.1025 20.6225 86.1025 20.2698C86.1025 19.9171 86.0528 19.6105 85.9534 19.3501C85.8563 19.0896 85.7119 18.8872 85.5201 18.7428C85.3307 18.5984 85.0975 18.5262 84.8205 18.5262C84.5341 18.5262 84.295 18.6008 84.1032 18.7499C83.9115 18.8991 83.767 19.105 83.67 19.3678C83.5729 19.6306 83.5244 19.9313 83.5244 20.2698C83.5244 20.6107 83.5729 20.9149 83.67 21.1824C83.7694 21.4476 83.915 21.6571 84.1068 21.811C84.3009 21.9625 84.5388 22.0383 84.8205 22.0383ZM92.2078 22.9971H90.8015L93.3619 15.7243H94.9883L97.5523 22.9971H96.146L94.2035 17.2158H94.1467L92.2078 22.9971ZM92.254 20.1455H96.0892V21.2037H92.254V20.1455ZM98.4534 25.0425V17.5425H99.7176V18.4445H99.7921C99.8584 18.3119 99.9519 18.1711 100.073 18.0219C100.193 17.8704 100.357 17.7414 100.563 17.6349C100.769 17.526 101.031 17.4715 101.351 17.4715C101.772 17.4715 102.152 17.5792 102.491 17.7947C102.832 18.0077 103.102 18.3238 103.301 18.7428C103.502 19.1595 103.603 19.6708 103.603 20.2769C103.603 20.8759 103.504 21.3849 103.308 21.8039C103.111 22.2229 102.844 22.5425 102.505 22.7627C102.167 22.9829 101.783 23.093 101.355 23.093C101.042 23.093 100.783 23.0409 100.577 22.9367C100.371 22.8325 100.205 22.7071 100.08 22.5603C99.9567 22.4111 99.8608 22.2703 99.7921 22.1377H99.7389V25.0425H98.4534ZM99.714 20.2698C99.714 20.6225 99.7637 20.9315 99.8632 21.1966C99.965 21.4618 100.111 21.6689 100.3 21.8181C100.492 21.9649 100.724 22.0383 100.996 22.0383C101.28 22.0383 101.518 21.9625 101.71 21.811C101.902 21.6571 102.046 21.4476 102.143 21.1824C102.242 20.9149 102.292 20.6107 102.292 20.2698C102.292 19.9313 102.244 19.6306 102.147 19.3678C102.049 19.105 101.905 18.8991 101.713 18.7499C101.522 18.6008 101.282 18.5262 100.996 18.5262C100.721 18.5262 100.488 18.5984 100.296 18.7428C100.105 18.8872 99.959 19.0896 99.8596 19.3501C99.7625 19.6105 99.714 19.9171 99.714 20.2698ZM104.703 25.0425V17.5425H105.968V18.4445H106.042C106.108 18.3119 106.202 18.1711 106.323 18.0219C106.443 17.8704 106.607 17.7414 106.813 17.6349C107.019 17.526 107.281 17.4715 107.601 17.4715C108.022 17.4715 108.402 17.5792 108.741 17.7947C109.082 18.0077 109.352 18.3238 109.551 18.7428C109.752 19.1595 109.853 19.6708 109.853 20.2769C109.853 20.8759 109.754 21.3849 109.558 21.8039C109.361 22.2229 109.094 22.5425 108.755 22.7627C108.417 22.9829 108.033 23.093 107.605 23.093C107.292 23.093 107.033 23.0409 106.827 22.9367C106.621 22.8325 106.455 22.7071 106.33 22.5603C106.207 22.4111 106.111 22.2703 106.042 22.1377H105.989V25.0425H104.703ZM105.964 20.2698C105.964 20.6225 106.014 20.9315 106.113 21.1966C106.215 21.4618 106.361 21.6689 106.55 21.8181C106.742 21.9649 106.974 22.0383 107.246 22.0383C107.53 22.0383 107.768 21.9625 107.96 21.811C108.152 21.6571 108.296 21.4476 108.393 21.1824C108.492 20.9149 108.542 20.6107 108.542 20.2698C108.542 19.9313 108.494 19.6306 108.397 19.3678C108.299 19.105 108.155 18.8991 107.963 18.7499C107.772 18.6008 107.532 18.5262 107.246 18.5262C106.971 18.5262 106.738 18.5984 106.546 18.7428C106.355 18.8872 106.209 19.0896 106.11 19.3501C106.013 19.6105 105.964 19.9171 105.964 20.2698Z" fill="white"/>
</g>
<g clip-path="url(#clip2_351_3002)">
<rect x="74.9971" y="31.4971" width="0.0057526" height="0.0057526" fill="white"/>
</g>
</g>
<defs>
<clipPath id="clip0_351_3002">
<rect width="113" height="24.0058" fill="white" transform="translate(18.5 7.49707)"/>
</clipPath>
<clipPath id="clip1_351_3002">
<rect width="113" height="15" fill="white" transform="translate(18.4999 11.9971)"/>
</clipPath>
<clipPath id="clip2_351_3002">
<rect width="24.0058" height="0.00576161" fill="white" transform="translate(62.9971 31.4971)"/>
</clipPath>
</defs>
</svg>
