<svg width="305" height="28" viewBox="0 0 305 28" fill="none" xmlns="http://www.w3.org/2000/svg">
<path d="M7.98864 22H0.769886V1.63636H8.0483C10.0966 1.63636 11.8598 2.04403 13.3381 2.85938C14.8163 3.66809 15.9531 4.83144 16.7486 6.34943C17.5507 7.86742 17.9517 9.68371 17.9517 11.7983C17.9517 13.9195 17.5507 15.7424 16.7486 17.267C15.9531 18.7917 14.8097 19.9616 13.3182 20.777C11.8333 21.5923 10.0568 22 7.98864 22ZM5.07528 18.3111H7.80966C9.08239 18.3111 10.1529 18.0857 11.0213 17.6349C11.8963 17.1776 12.5526 16.4716 12.9901 15.517C13.4342 14.5559 13.6562 13.3163 13.6562 11.7983C13.6562 10.2936 13.4342 9.06392 12.9901 8.10938C12.5526 7.15483 11.8996 6.45218 11.0312 6.00142C10.1629 5.55066 9.09233 5.32528 7.8196 5.32528H5.07528V18.3111ZM27.962 22.2983C26.4175 22.2983 25.0818 21.9702 23.9549 21.3139C22.8346 20.651 21.9696 19.7296 21.3597 18.5497C20.7499 17.3632 20.445 15.9877 20.445 14.4233C20.445 12.8456 20.7499 11.4669 21.3597 10.2869C21.9696 9.10038 22.8346 8.17898 23.9549 7.52273C25.0818 6.85985 26.4175 6.52841 27.962 6.52841C29.5065 6.52841 30.8389 6.85985 31.9592 7.52273C33.0861 8.17898 33.9544 9.10038 34.5643 10.2869C35.1741 11.4669 35.479 12.8456 35.479 14.4233C35.479 15.9877 35.1741 17.3632 34.5643 18.5497C33.9544 19.7296 33.0861 20.651 31.9592 21.3139C30.8389 21.9702 29.5065 22.2983 27.962 22.2983ZM27.9819 19.017C28.6845 19.017 29.2712 18.8182 29.7418 18.4205C30.2125 18.0161 30.5671 17.4659 30.8058 16.7699C31.051 16.0739 31.1737 15.2817 31.1737 14.3935C31.1737 13.5052 31.051 12.7131 30.8058 12.017C30.5671 11.321 30.2125 10.7708 29.7418 10.3665C29.2712 9.96212 28.6845 9.75994 27.9819 9.75994C27.2726 9.75994 26.676 9.96212 26.1921 10.3665C25.7148 10.7708 25.3536 11.321 25.1083 12.017C24.8697 12.7131 24.7504 13.5052 24.7504 14.3935C24.7504 15.2817 24.8697 16.0739 25.1083 16.7699C25.3536 17.4659 25.7148 18.0161 26.1921 18.4205C26.676 18.8182 27.2726 19.017 27.9819 19.017ZM40.8633 22L36.707 6.72727H40.9925L43.359 16.9886H43.4982L45.9641 6.72727H50.1701L52.6758 16.929H52.805L55.1317 6.72727H59.4073L55.261 22H50.7766L48.1516 12.3949H47.9627L45.3377 22H40.8633ZM65.9027 13.1705V22H61.6669V6.72727H65.7038V9.42188H65.8828C66.2209 8.53362 66.7876 7.83097 67.5831 7.31392C68.3786 6.79025 69.343 6.52841 70.4766 6.52841C71.5372 6.52841 72.4619 6.76042 73.2507 7.22443C74.0395 7.68845 74.6527 8.35133 75.0902 9.21307C75.5277 10.0682 75.7464 11.089 75.7464 12.2756V22H71.5107V13.0312C71.5173 12.0966 71.2786 11.3674 70.7947 10.8438C70.3108 10.3134 69.6446 10.0483 68.7962 10.0483C68.2261 10.0483 67.7223 10.1709 67.2848 10.4162C66.8539 10.6615 66.5159 11.0194 66.2706 11.4901C66.032 11.9541 65.9093 12.5142 65.9027 13.1705ZM83.3207 1.63636V22H79.0849V1.63636H83.3207ZM93.6143 22.2983C92.0698 22.2983 90.7341 21.9702 89.6072 21.3139C88.487 20.651 87.6219 19.7296 87.0121 18.5497C86.4022 17.3632 86.0973 15.9877 86.0973 14.4233C86.0973 12.8456 86.4022 11.4669 87.0121 10.2869C87.6219 9.10038 88.487 8.17898 89.6072 7.52273C90.7341 6.85985 92.0698 6.52841 93.6143 6.52841C95.1589 6.52841 96.4912 6.85985 97.6115 7.52273C98.7384 8.17898 99.6068 9.10038 100.217 10.2869C100.826 11.4669 101.131 12.8456 101.131 14.4233C101.131 15.9877 100.826 17.3632 100.217 18.5497C99.6068 19.7296 98.7384 20.651 97.6115 21.3139C96.4912 21.9702 95.1589 22.2983 93.6143 22.2983ZM93.6342 19.017C94.3369 19.017 94.9235 18.8182 95.3942 18.4205C95.8648 18.0161 96.2195 17.4659 96.4581 16.7699C96.7034 16.0739 96.826 15.2817 96.826 14.3935C96.826 13.5052 96.7034 12.7131 96.4581 12.017C96.2195 11.321 95.8648 10.7708 95.3942 10.3665C94.9235 9.96212 94.3369 9.75994 93.6342 9.75994C92.925 9.75994 92.3284 9.96212 91.8445 10.3665C91.3672 10.7708 91.0059 11.321 90.7607 12.017C90.522 12.7131 90.4027 13.5052 90.4027 14.3935C90.4027 15.2817 90.522 16.0739 90.7607 16.7699C91.0059 17.4659 91.3672 18.0161 91.8445 18.4205C92.3284 18.8182 92.925 19.017 93.6342 19.017ZM108.241 22.2884C107.266 22.2884 106.398 22.1193 105.636 21.7812C104.873 21.4366 104.27 20.9295 103.826 20.2599C103.388 19.5838 103.17 18.742 103.17 17.7344C103.17 16.8859 103.326 16.1733 103.637 15.5966C103.949 15.0199 104.373 14.5559 104.91 14.2045C105.447 13.8532 106.057 13.5881 106.739 13.4091C107.429 13.2301 108.151 13.1042 108.907 13.0312C109.795 12.9384 110.511 12.8523 111.055 12.7727C111.598 12.6866 111.993 12.5606 112.238 12.3949C112.483 12.2292 112.606 11.9839 112.606 11.6591V11.5994C112.606 10.9697 112.407 10.4825 112.009 10.1378C111.618 9.79309 111.061 9.62074 110.339 9.62074C109.576 9.62074 108.97 9.78977 108.519 10.1278C108.068 10.4593 107.77 10.8769 107.624 11.3807L103.707 11.0625C103.906 10.1345 104.297 9.33239 104.88 8.65625C105.463 7.97348 106.216 7.44981 107.137 7.08523C108.065 6.71401 109.139 6.52841 110.359 6.52841C111.207 6.52841 112.019 6.62784 112.795 6.8267C113.577 7.02557 114.27 7.33381 114.873 7.75142C115.483 8.16903 115.963 8.70597 116.315 9.36222C116.666 10.0118 116.842 10.7907 116.842 11.6989V22H112.825V19.8821H112.705C112.46 20.3594 112.132 20.7803 111.721 21.1449C111.31 21.5028 110.816 21.7846 110.239 21.9901C109.663 22.1889 108.996 22.2884 108.241 22.2884ZM109.454 19.3651C110.077 19.3651 110.627 19.2424 111.104 18.9972C111.582 18.7453 111.956 18.4072 112.228 17.983C112.5 17.5587 112.636 17.0781 112.636 16.5412V14.9205C112.503 15.0066 112.321 15.0862 112.089 15.1591C111.863 15.2254 111.608 15.2884 111.323 15.348C111.038 15.401 110.753 15.4508 110.468 15.4972C110.183 15.5369 109.924 15.5734 109.692 15.6065C109.195 15.6795 108.761 15.7955 108.39 15.9545C108.019 16.1136 107.73 16.3291 107.525 16.6009C107.319 16.866 107.217 17.1974 107.217 17.5952C107.217 18.1719 107.425 18.6127 107.843 18.9176C108.267 19.2159 108.804 19.3651 109.454 19.3651ZM125.756 22.2486C124.596 22.2486 123.545 21.9503 122.604 21.3537C121.669 20.7505 120.927 19.8655 120.376 18.6989C119.833 17.5256 119.561 16.0871 119.561 14.3835C119.561 12.6335 119.843 11.1785 120.406 10.0185C120.97 8.8518 121.719 7.98011 122.653 7.40341C123.595 6.82008 124.625 6.52841 125.746 6.52841C126.601 6.52841 127.313 6.67424 127.884 6.96591C128.46 7.25095 128.924 7.6089 129.276 8.03977C129.634 8.46401 129.905 8.88163 130.091 9.29261H130.22V1.63636H134.446V22H130.27V19.554H130.091C129.892 19.9782 129.61 20.3991 129.246 20.8168C128.888 21.2277 128.42 21.5691 127.844 21.8409C127.274 22.1127 126.578 22.2486 125.756 22.2486ZM127.098 18.8778C127.781 18.8778 128.357 18.6922 128.828 18.321C129.305 17.9432 129.67 17.4162 129.922 16.7401C130.18 16.0639 130.31 15.2718 130.31 14.3636C130.31 13.4555 130.184 12.6667 129.932 11.9972C129.68 11.3277 129.315 10.8106 128.838 10.446C128.361 10.0814 127.781 9.89915 127.098 9.89915C126.402 9.89915 125.815 10.0881 125.338 10.4659C124.861 10.8437 124.5 11.3674 124.254 12.0369C124.009 12.7064 123.886 13.482 123.886 14.3636C123.886 15.2519 124.009 16.0374 124.254 16.7202C124.506 17.3963 124.867 17.9266 125.338 18.3111C125.815 18.6889 126.402 18.8778 127.098 18.8778ZM147.999 22H143.385L150.415 1.63636H155.963L162.983 22H158.369L153.268 6.28977H153.109L147.999 22ZM147.71 13.9957H158.608V17.3565H147.71V13.9957ZM165.354 27.7273V6.72727H169.531V9.29261H169.719C169.905 8.88163 170.174 8.46401 170.525 8.03977C170.883 7.6089 171.347 7.25095 171.917 6.96591C172.494 6.67424 173.21 6.52841 174.065 6.52841C175.178 6.52841 176.206 6.82008 177.147 7.40341C178.088 7.98011 178.841 8.8518 179.404 10.0185C179.968 11.1785 180.249 12.6335 180.249 14.3835C180.249 16.0871 179.974 17.5256 179.424 18.6989C178.88 19.8655 178.138 20.7505 177.197 21.3537C176.262 21.9503 175.215 22.2486 174.055 22.2486C173.233 22.2486 172.533 22.1127 171.957 21.8409C171.387 21.5691 170.919 21.2277 170.555 20.8168C170.19 20.3991 169.912 19.9782 169.719 19.554H169.59V27.7273H165.354ZM169.501 14.3636C169.501 15.2718 169.627 16.0639 169.879 16.7401C170.13 17.4162 170.495 17.9432 170.972 18.321C171.45 18.6922 172.03 18.8778 172.712 18.8778C173.402 18.8778 173.985 18.6889 174.462 18.3111C174.94 17.9266 175.301 17.3963 175.546 16.7202C175.798 16.0374 175.924 15.2519 175.924 14.3636C175.924 13.482 175.801 12.7064 175.556 12.0369C175.311 11.3674 174.95 10.8437 174.472 10.4659C173.995 10.0881 173.408 9.89915 172.712 9.89915C172.023 9.89915 171.44 10.0814 170.962 10.446C170.492 10.8106 170.13 11.3277 169.879 11.9972C169.627 12.6667 169.501 13.4555 169.501 14.3636ZM183.073 27.7273V6.72727H187.249V9.29261H187.438C187.624 8.88163 187.892 8.46401 188.244 8.03977C188.602 7.6089 189.066 7.25095 189.636 6.96591C190.212 6.67424 190.928 6.52841 191.783 6.52841C192.897 6.52841 193.924 6.82008 194.866 7.40341C195.807 7.98011 196.559 8.8518 197.123 10.0185C197.686 11.1785 197.968 12.6335 197.968 14.3835C197.968 16.0871 197.693 17.5256 197.143 18.6989C196.599 19.8655 195.857 20.7505 194.915 21.3537C193.981 21.9503 192.933 22.2486 191.773 22.2486C190.951 22.2486 190.252 22.1127 189.675 21.8409C189.105 21.5691 188.638 21.2277 188.273 20.8168C187.909 20.3991 187.63 19.9782 187.438 19.554H187.309V27.7273H183.073ZM187.219 14.3636C187.219 15.2718 187.345 16.0639 187.597 16.7401C187.849 17.4162 188.214 17.9432 188.691 18.321C189.168 18.6922 189.748 18.8778 190.431 18.8778C191.121 18.8778 191.704 18.6889 192.181 18.3111C192.658 17.9266 193.02 17.3963 193.265 16.7202C193.517 16.0374 193.643 15.2519 193.643 14.3636C193.643 13.482 193.52 12.7064 193.275 12.0369C193.03 11.3674 192.668 10.8437 192.191 10.4659C191.714 10.0881 191.127 9.89915 190.431 9.89915C189.742 9.89915 189.158 10.0814 188.681 10.446C188.21 10.8106 187.849 11.3277 187.597 11.9972C187.345 12.6667 187.219 13.4555 187.219 14.3636ZM215.485 6.72727V9.90909H206.059V6.72727H215.485ZM208.217 22V5.62358C208.217 4.51657 208.432 3.59848 208.863 2.86932C209.301 2.14015 209.897 1.59328 210.653 1.22869C211.409 0.864108 212.267 0.681817 213.228 0.681817C213.878 0.681817 214.471 0.731533 215.008 0.830966C215.552 0.930397 215.956 1.01989 216.221 1.09943L215.466 4.28125C215.3 4.22822 215.094 4.1785 214.849 4.1321C214.61 4.0857 214.365 4.0625 214.113 4.0625C213.49 4.0625 213.056 4.20833 212.811 4.5C212.565 4.78504 212.443 5.18608 212.443 5.70312V22H208.217ZM224.427 22.2983C222.882 22.2983 221.547 21.9702 220.42 21.3139C219.299 20.651 218.434 19.7296 217.825 18.5497C217.215 17.3632 216.91 15.9877 216.91 14.4233C216.91 12.8456 217.215 11.4669 217.825 10.2869C218.434 9.10038 219.299 8.17898 220.42 7.52273C221.547 6.85985 222.882 6.52841 224.427 6.52841C225.971 6.52841 227.304 6.85985 228.424 7.52273C229.551 8.17898 230.419 9.10038 231.029 10.2869C231.639 11.4669 231.944 12.8456 231.944 14.4233C231.944 15.9877 231.639 17.3632 231.029 18.5497C230.419 19.7296 229.551 20.651 228.424 21.3139C227.304 21.9702 225.971 22.2983 224.427 22.2983ZM224.447 19.017C225.149 19.017 225.736 18.8182 226.207 18.4205C226.677 18.0161 227.032 17.4659 227.271 16.7699C227.516 16.0739 227.638 15.2817 227.638 14.3935C227.638 13.5052 227.516 12.7131 227.271 12.017C227.032 11.321 226.677 10.7708 226.207 10.3665C225.736 9.96212 225.149 9.75994 224.447 9.75994C223.737 9.75994 223.141 9.96212 222.657 10.3665C222.18 10.7708 221.818 11.321 221.573 12.017C221.335 12.7131 221.215 13.5052 221.215 14.3935C221.215 15.2817 221.335 16.0739 221.573 16.7699C221.818 17.4659 222.18 18.0161 222.657 18.4205C223.141 18.8182 223.737 19.017 224.447 19.017ZM234.698 22V6.72727H238.805V9.39205H238.964C239.242 8.44413 239.71 7.72822 240.366 7.24432C241.022 6.75379 241.778 6.50852 242.633 6.50852C242.845 6.50852 243.074 6.52178 243.319 6.54829C243.564 6.57481 243.78 6.61127 243.965 6.65767V10.4162C243.766 10.3565 243.491 10.3035 243.14 10.2571C242.789 10.2107 242.467 10.1875 242.175 10.1875C241.552 10.1875 240.996 10.3234 240.505 10.5952C240.021 10.8603 239.637 11.2315 239.352 11.7088C239.073 12.1861 238.934 12.7363 238.934 13.3594V22H234.698ZM260.849 6.72727V9.90909H251.423V6.72727H260.849ZM253.58 22V5.62358C253.58 4.51657 253.796 3.59848 254.227 2.86932C254.664 2.14015 255.261 1.59328 256.016 1.22869C256.772 0.864108 257.63 0.681817 258.592 0.681817C259.241 0.681817 259.835 0.731533 260.371 0.830966C260.915 0.930397 261.319 1.01989 261.585 1.09943L260.829 4.28125C260.663 4.22822 260.458 4.1785 260.212 4.1321C259.974 4.0857 259.728 4.0625 259.477 4.0625C258.853 4.0625 258.419 4.20833 258.174 4.5C257.929 4.78504 257.806 5.18608 257.806 5.70312V22H253.58ZM263.436 22V6.72727H267.543V9.39205H267.702C267.98 8.44413 268.448 7.72822 269.104 7.24432C269.76 6.75379 270.516 6.50852 271.371 6.50852C271.583 6.50852 271.812 6.52178 272.057 6.54829C272.302 6.57481 272.518 6.61127 272.703 6.65767V10.4162C272.505 10.3565 272.23 10.3035 271.878 10.2571C271.527 10.2107 271.205 10.1875 270.914 10.1875C270.291 10.1875 269.734 10.3234 269.243 10.5952C268.759 10.8603 268.375 11.2315 268.09 11.7088C267.811 12.1861 267.672 12.7363 267.672 13.3594V22H263.436ZM281.143 22.2983C279.572 22.2983 278.219 21.9801 277.086 21.3438C275.959 20.7008 275.091 19.7926 274.481 18.6193C273.871 17.4394 273.566 16.044 273.566 14.4332C273.566 12.8622 273.871 11.4834 274.481 10.2969C275.091 9.11032 275.949 8.18561 277.056 7.52273C278.17 6.85985 279.476 6.52841 280.974 6.52841C281.981 6.52841 282.919 6.69081 283.788 7.01562C284.663 7.33381 285.425 7.81439 286.075 8.45739C286.731 9.10038 287.241 9.90909 287.606 10.8835C287.97 11.8513 288.153 12.9848 288.153 14.2841V15.4474H275.256V12.8224H284.165C284.165 12.2126 284.033 11.6723 283.768 11.2017C283.503 10.7311 283.135 10.3632 282.664 10.098C282.2 9.82623 281.66 9.69034 281.043 9.69034C280.4 9.69034 279.83 9.83949 279.333 10.1378C278.843 10.4295 278.458 10.8239 278.18 11.321C277.901 11.8116 277.759 12.3584 277.752 12.9616V15.4574C277.752 16.2131 277.891 16.866 278.17 17.4162C278.455 17.9664 278.856 18.3906 279.373 18.6889C279.89 18.9872 280.503 19.1364 281.212 19.1364C281.683 19.1364 282.114 19.0701 282.505 18.9375C282.896 18.8049 283.231 18.6061 283.509 18.3409C283.788 18.0758 284 17.7509 284.146 17.3665L288.063 17.625C287.864 18.5663 287.457 19.3883 286.84 20.0909C286.23 20.7869 285.442 21.3305 284.474 21.7216C283.513 22.1061 282.402 22.2983 281.143 22.2983ZM297.877 22.2983C296.306 22.2983 294.954 21.9801 293.82 21.3438C292.693 20.7008 291.825 19.7926 291.215 18.6193C290.605 17.4394 290.3 16.044 290.3 14.4332C290.3 12.8622 290.605 11.4834 291.215 10.2969C291.825 9.11032 292.683 8.18561 293.79 7.52273C294.904 6.85985 296.21 6.52841 297.708 6.52841C298.716 6.52841 299.654 6.69081 300.522 7.01562C301.397 7.33381 302.159 7.81439 302.809 8.45739C303.465 9.10038 303.976 9.90909 304.34 10.8835C304.705 11.8513 304.887 12.9848 304.887 14.2841V15.4474H291.991V12.8224H300.9C300.9 12.2126 300.767 11.6723 300.502 11.2017C300.237 10.7311 299.869 10.3632 299.398 10.098C298.934 9.82623 298.394 9.69034 297.778 9.69034C297.135 9.69034 296.565 9.83949 296.067 10.1378C295.577 10.4295 295.192 10.8239 294.914 11.321C294.636 11.8116 294.493 12.3584 294.487 12.9616V15.4574C294.487 16.2131 294.626 16.866 294.904 17.4162C295.189 17.9664 295.59 18.3906 296.107 18.6889C296.624 18.9872 297.237 19.1364 297.947 19.1364C298.417 19.1364 298.848 19.0701 299.239 18.9375C299.63 18.8049 299.965 18.6061 300.244 18.3409C300.522 18.0758 300.734 17.7509 300.88 17.3665L304.798 17.625C304.599 18.5663 304.191 19.3883 303.575 20.0909C302.965 20.7869 302.176 21.3305 301.208 21.7216C300.247 22.1061 299.137 22.2983 297.877 22.2983Z" fill="#2D2C2C"/>
</svg>
