<svg width="150" height="39" viewBox="0 0 150 39" fill="none" xmlns="http://www.w3.org/2000/svg">
<rect width="150" height="39" rx="12" fill="white"/>
<g clip-path="url(#clip0_6_4725)">
<g clip-path="url(#clip1_6_4725)">
<path d="M42.8888 22.9971H40.4244V15.7244H42.9386C43.6606 15.7244 44.2809 15.87 44.7994 16.1612C45.3202 16.45 45.7203 16.8655 45.9996 17.4076C46.279 17.9498 46.4187 18.5985 46.4187 19.3537C46.4187 20.1112 46.2778 20.7623 45.9961 21.3068C45.7167 21.8513 45.3131 22.2691 44.7852 22.5603C44.2596 22.8515 43.6275 22.9971 42.8888 22.9971ZM41.7418 21.8572H42.8249C43.3316 21.8572 43.7541 21.7649 44.0927 21.5802C44.4312 21.3932 44.6857 21.115 44.8562 20.7457C45.0266 20.374 45.1119 19.91 45.1119 19.3537C45.1119 18.7973 45.0266 18.3357 44.8562 17.9687C44.6857 17.5994 44.4336 17.3236 44.0998 17.1413C43.7683 16.9566 43.3564 16.8643 42.864 16.8643H41.7418V21.8572ZM49.9929 23.1037C49.4602 23.1037 48.9986 22.9865 48.608 22.7521C48.2173 22.5177 47.9143 22.1898 47.6989 21.7684C47.4858 21.347 47.3793 20.8546 47.3793 20.2912C47.3793 19.7277 47.4858 19.2341 47.6989 18.8103C47.9143 18.3866 48.2173 18.0575 48.608 17.8231C48.9986 17.5888 49.4602 17.4716 49.9929 17.4716C50.5256 17.4716 50.9872 17.5888 51.3778 17.8231C51.7685 18.0575 52.0703 18.3866 52.2834 18.8103C52.4988 19.2341 52.6065 19.7277 52.6065 20.2912C52.6065 20.8546 52.4988 21.347 52.2834 21.7684C52.0703 22.1898 51.7685 22.5177 51.3778 22.7521C50.9872 22.9865 50.5256 23.1037 49.9929 23.1037ZM50 22.0738C50.2888 22.0738 50.5303 21.9945 50.7244 21.8359C50.9186 21.6749 51.063 21.4595 51.1577 21.1896C51.2547 20.9197 51.3033 20.6191 51.3033 20.2876C51.3033 19.9538 51.2547 19.652 51.1577 19.3821C51.063 19.1098 50.9186 18.8932 50.7244 18.7322C50.5303 18.5712 50.2888 18.4907 50 18.4907C49.7041 18.4907 49.4579 18.5712 49.2614 18.7322C49.0672 18.8932 48.9216 19.1098 48.8246 19.3821C48.7299 19.652 48.6825 19.9538 48.6825 20.2876C48.6825 20.6191 48.7299 20.9197 48.8246 21.1896C48.9216 21.4595 49.0672 21.6749 49.2614 21.8359C49.4579 21.9945 49.7041 22.0738 50 22.0738ZM54.6671 22.9971L53.1259 17.5426H54.4363L55.3951 21.3778H55.4448L56.4249 17.5426H57.7211L58.7012 21.3565H58.7544L59.699 17.5426H61.013L59.4682 22.9971H58.1294L57.1067 19.3111H57.0321L56.0094 22.9971H54.6671ZM63.196 19.8011V22.9971H61.9105V17.5426H63.1392V18.4694H63.2031C63.3286 18.164 63.5286 17.9214 63.8033 17.7414C64.0803 17.5615 64.4223 17.4716 64.8295 17.4716C65.206 17.4716 65.5339 17.5521 65.8132 17.713C66.0949 17.874 66.3127 18.1072 66.4666 18.4126C66.6229 18.718 66.6998 19.0885 66.6974 19.5241V22.9971H65.4119V19.723C65.4119 19.3584 65.3172 19.0731 65.1278 18.8672C64.9408 18.6612 64.6816 18.5582 64.3501 18.5582C64.1252 18.5582 63.9252 18.6079 63.75 18.7074C63.5772 18.8044 63.4411 18.9453 63.3416 19.1299C63.2446 19.3146 63.196 19.5383 63.196 19.8011ZM69.2898 15.7244V22.9971H68.0043V15.7244H69.2898ZM72.9909 23.1037C72.4583 23.1037 71.9966 22.9865 71.606 22.7521C71.2154 22.5177 70.9123 22.1898 70.6969 21.7684C70.4838 21.347 70.3773 20.8546 70.3773 20.2912C70.3773 19.7277 70.4838 19.2341 70.6969 18.8103C70.9123 18.3866 71.2154 18.0575 71.606 17.8231C71.9966 17.5888 72.4583 17.4716 72.9909 17.4716C73.5236 17.4716 73.9853 17.5888 74.3759 17.8231C74.7665 18.0575 75.0684 18.3866 75.2814 18.8103C75.4969 19.2341 75.6046 19.7277 75.6046 20.2912C75.6046 20.8546 75.4969 21.347 75.2814 21.7684C75.0684 22.1898 74.7665 22.5177 74.3759 22.7521C73.9853 22.9865 73.5236 23.1037 72.9909 23.1037ZM72.998 22.0738C73.2869 22.0738 73.5283 21.9945 73.7225 21.8359C73.9166 21.6749 74.061 21.4595 74.1557 21.1896C74.2528 20.9197 74.3013 20.6191 74.3013 20.2876C74.3013 19.9538 74.2528 19.652 74.1557 19.3821C74.061 19.1098 73.9166 18.8932 73.7225 18.7322C73.5283 18.5712 73.2869 18.4907 72.998 18.4907C72.7021 18.4907 72.4559 18.5712 72.2594 18.7322C72.0653 18.8932 71.9197 19.1098 71.8226 19.3821C71.7279 19.652 71.6806 19.9538 71.6806 20.2876C71.6806 20.6191 71.7279 20.9197 71.8226 21.1896C71.9197 21.4595 72.0653 21.6749 72.2594 21.8359C72.4559 21.9945 72.7021 22.0738 72.998 22.0738ZM78.2653 23.1072C77.9196 23.1072 77.6083 23.0457 77.3313 22.9226C77.0567 22.7971 76.8389 22.6124 76.6779 22.3686C76.5193 22.1247 76.44 21.8241 76.44 21.4666C76.44 21.1588 76.4968 20.9043 76.6104 20.7031C76.7241 20.5019 76.8791 20.3409 77.0756 20.2201C77.2721 20.0994 77.4935 20.0083 77.7397 19.9467C77.9883 19.8828 78.2451 19.8366 78.5103 19.8082C78.8299 19.7751 79.0891 19.7455 79.288 19.7194C79.4869 19.691 79.6313 19.6484 79.7212 19.5916C79.8136 19.5324 79.8597 19.4413 79.8597 19.3182V19.2968C79.8597 19.0293 79.7804 18.8222 79.6218 18.6754C79.4632 18.5286 79.2347 18.4552 78.9364 18.4552C78.6216 18.4552 78.3718 18.5239 78.1871 18.6612C78.0049 18.7985 77.8817 18.9607 77.8178 19.1477L76.6175 18.9772C76.7122 18.6458 76.8685 18.3688 77.0863 18.1463C77.3041 17.9214 77.5704 17.7533 77.8853 17.642C78.2002 17.5284 78.5482 17.4716 78.9293 17.4716C79.1921 17.4716 79.4537 17.5023 79.7141 17.5639C79.9746 17.6254 80.2125 17.7272 80.4279 17.8693C80.6433 18.009 80.8162 18.1995 80.9464 18.441C81.079 18.6825 81.1452 18.9843 81.1452 19.3466V22.9971H79.9094V22.2478H79.8668C79.7887 22.3994 79.6786 22.5414 79.5366 22.674C79.3969 22.8042 79.2205 22.9095 79.0075 22.99C78.7968 23.0682 78.5494 23.1072 78.2653 23.1072ZM78.5991 22.1626C78.8571 22.1626 79.0808 22.1117 79.2702 22.0099C79.4596 21.9057 79.6052 21.7684 79.707 21.598C79.8112 21.4275 79.8633 21.2417 79.8633 21.0405V20.3977C79.823 20.4308 79.7544 20.4616 79.6573 20.49C79.5626 20.5184 79.4561 20.5433 79.3377 20.5646C79.2193 20.5859 79.1022 20.6048 78.9862 20.6214C78.8701 20.638 78.7695 20.6522 78.6843 20.664C78.4925 20.6901 78.3209 20.7327 78.1694 20.7919C78.0179 20.8511 77.8983 20.9339 77.8107 21.0405C77.7231 21.1446 77.6793 21.2796 77.6793 21.4453C77.6793 21.682 77.7657 21.8608 77.9386 21.9815C78.1114 22.1022 78.3316 22.1626 78.5991 22.1626ZM84.462 23.093C84.0335 23.093 83.65 22.9829 83.3114 22.7628C82.9729 22.5426 82.7054 22.223 82.5089 21.8039C82.3124 21.3849 82.2141 20.8759 82.2141 20.277C82.2141 19.6709 82.3136 19.1595 82.5124 18.7429C82.7137 18.3238 82.9847 18.0078 83.3256 17.7947C83.6665 17.5793 84.0465 17.4716 84.4656 17.4716C84.7852 17.4716 85.0479 17.526 85.2539 17.6349C85.4599 17.7414 85.6232 17.8705 85.744 18.022C85.8647 18.1711 85.9582 18.312 86.0245 18.4446H86.0778V15.7244H87.3668V22.9971H86.1026V22.1378H86.0245C85.9582 22.2703 85.8623 22.4112 85.7369 22.5603C85.6114 22.7071 85.4457 22.8326 85.2397 22.9368C85.0337 23.0409 84.7745 23.093 84.462 23.093ZM84.8207 22.0383C85.0929 22.0383 85.3249 21.9649 85.5167 21.8182C85.7085 21.669 85.854 21.4619 85.9535 21.1967C86.0529 20.9316 86.1026 20.6226 86.1026 20.2699C86.1026 19.9171 86.0529 19.6105 85.9535 19.3501C85.8564 19.0897 85.712 18.8873 85.5202 18.7429C85.3308 18.5985 85.0977 18.5263 84.8207 18.5263C84.5342 18.5263 84.2951 18.6008 84.1033 18.75C83.9116 18.8991 83.7672 19.1051 83.6701 19.3679C83.573 19.6307 83.5245 19.9313 83.5245 20.2699C83.5245 20.6108 83.573 20.915 83.6701 21.1825C83.7695 21.4477 83.9151 21.6572 84.1069 21.8111C84.301 21.9626 84.5389 22.0383 84.8207 22.0383ZM92.2079 22.9971H90.8017L93.362 15.7244H94.9885L97.5524 22.9971H96.1461L94.2037 17.2159H94.1468L92.2079 22.9971ZM92.2541 20.1456H96.0893V21.2038H92.2541V20.1456ZM98.4535 25.0426V17.5426H99.7177V18.4446H99.7923C99.8585 18.312 99.9521 18.1711 100.073 18.022C100.194 17.8705 100.357 17.7414 100.563 17.6349C100.769 17.526 101.032 17.4716 101.351 17.4716C101.773 17.4716 102.153 17.5793 102.491 17.7947C102.832 18.0078 103.102 18.3238 103.301 18.7429C103.502 19.1595 103.603 19.6709 103.603 20.277C103.603 20.8759 103.504 21.3849 103.308 21.8039C103.111 22.223 102.844 22.5426 102.505 22.7628C102.167 22.9829 101.783 23.093 101.355 23.093C101.042 23.093 100.783 23.0409 100.577 22.9368C100.371 22.8326 100.205 22.7071 100.08 22.5603C99.9568 22.4112 99.8609 22.2703 99.7923 22.1378H99.739V25.0426H98.4535ZM99.7141 20.2699C99.7141 20.6226 99.7638 20.9316 99.8633 21.1967C99.9651 21.4619 100.111 21.669 100.3 21.8182C100.492 21.9649 100.724 22.0383 100.996 22.0383C101.28 22.0383 101.518 21.9626 101.71 21.8111C101.902 21.6572 102.046 21.4477 102.143 21.1825C102.243 20.915 102.292 20.6108 102.292 20.2699C102.292 19.9313 102.244 19.6307 102.147 19.3679C102.05 19.1051 101.905 18.8991 101.713 18.75C101.522 18.6008 101.283 18.5263 100.996 18.5263C100.721 18.5263 100.488 18.5985 100.297 18.7429C100.105 18.8873 99.9592 19.0897 99.8597 19.3501C99.7627 19.6105 99.7141 19.9171 99.7141 20.2699ZM104.703 25.0426V17.5426H105.968V18.4446H106.042C106.109 18.312 106.202 18.1711 106.323 18.022C106.444 17.8705 106.607 17.7414 106.813 17.6349C107.019 17.526 107.282 17.4716 107.601 17.4716C108.023 17.4716 108.403 17.5793 108.741 17.7947C109.082 18.0078 109.352 18.3238 109.551 18.7429C109.752 19.1595 109.853 19.6709 109.853 20.277C109.853 20.8759 109.754 21.3849 109.558 21.8039C109.361 22.223 109.094 22.5426 108.755 22.7628C108.417 22.9829 108.033 23.093 107.605 23.093C107.292 23.093 107.033 23.0409 106.827 22.9368C106.621 22.8326 106.455 22.7071 106.33 22.5603C106.207 22.4112 106.111 22.2703 106.042 22.1378H105.989V25.0426H104.703ZM105.964 20.2699C105.964 20.6226 106.014 20.9316 106.113 21.1967C106.215 21.4619 106.361 21.669 106.55 21.8182C106.742 21.9649 106.974 22.0383 107.246 22.0383C107.53 22.0383 107.768 21.9626 107.96 21.8111C108.152 21.6572 108.296 21.4477 108.393 21.1825C108.493 20.915 108.542 20.6108 108.542 20.2699C108.542 19.9313 108.494 19.6307 108.397 19.3679C108.3 19.1051 108.155 18.8991 107.963 18.75C107.772 18.6008 107.533 18.5263 107.246 18.5263C106.971 18.5263 106.738 18.5985 106.547 18.7429C106.355 18.8873 106.209 19.0897 106.11 19.3501C106.013 19.6105 105.964 19.9171 105.964 20.2699Z" fill="#2D3748"/>
</g>
<g clip-path="url(#clip2_6_4725)">
<rect x="74.9971" y="31.4971" width="0.0057526" height="0.0057526" fill="#C4C4C4"/>
</g>
</g>
<defs>
<clipPath id="clip0_6_4725">
<rect width="113" height="24.0058" fill="white" transform="translate(18.5 7.49713)"/>
</clipPath>
<clipPath id="clip1_6_4725">
<rect width="113" height="15" fill="white" transform="translate(18.5 11.9971)"/>
</clipPath>
<clipPath id="clip2_6_4725">
<rect width="24.0058" height="0.00576161" fill="white" transform="translate(62.9971 31.4971)"/>
</clipPath>
</defs>
</svg>
