<svg width="23" height="22" viewBox="0 0 23 22" fill="none" xmlns="http://www.w3.org/2000/svg">
<path d="M21.8437 11.0032C21.5388 11.0032 21.2463 11.119 21.0307 11.3253C20.8151 11.5315 20.694 11.8112 20.694 12.1029V18.701C20.694 18.9926 20.5729 19.2723 20.3573 19.4785C20.1417 19.6848 19.8492 19.8006 19.5443 19.8006H3.449C3.14409 19.8006 2.85167 19.6848 2.63606 19.4785C2.42046 19.2723 2.29933 18.9926 2.29933 18.701V3.30542C2.29933 3.01377 2.42046 2.73406 2.63606 2.52783C2.85167 2.3216 3.14409 2.20574 3.449 2.20574H10.347C10.6519 2.20574 10.9443 2.08988 11.1599 1.88365C11.3755 1.67742 11.4967 1.39771 11.4967 1.10606C11.4967 0.814404 11.3755 0.534696 11.1599 0.328465C10.9443 0.122235 10.6519 0.00637633 10.347 0.00637633H3.449C2.53427 0.00637633 1.657 0.353953 1.01019 0.972644C0.363376 1.59133 0 2.43046 0 3.30542V18.701C0 19.5759 0.363376 20.415 1.01019 21.0337C1.657 21.6524 2.53427 22 3.449 22H19.5443C20.4591 22 21.3363 21.6524 21.9831 21.0337C22.63 20.415 22.9933 19.5759 22.9933 18.701V12.1029C22.9933 11.8112 22.8722 11.5315 22.6566 11.3253C22.441 11.119 22.1486 11.0032 21.8437 11.0032ZM4.59867 11.8389V16.5016C4.59867 16.7932 4.71979 17.073 4.9354 17.2792C5.151 17.4854 5.44342 17.6013 5.74833 17.6013H10.6229C10.7742 17.6021 10.9242 17.5744 11.0643 17.5196C11.2044 17.4649 11.3318 17.3843 11.4392 17.2824L19.3949 9.66158L22.6599 6.60446C22.7677 6.50223 22.8532 6.38061 22.9116 6.2466C22.9699 6.1126 23 5.96886 23 5.82369C23 5.67852 22.9699 5.53478 22.9116 5.40078C22.8532 5.26677 22.7677 5.14515 22.6599 5.04292L17.7853 0.325284C17.6785 0.222212 17.5513 0.140402 17.4112 0.0845731C17.2711 0.0287437 17.1208 0 16.9691 0C16.8173 0 16.667 0.0287437 16.5269 0.0845731C16.3868 0.140402 16.2597 0.222212 16.1528 0.325284L12.9108 3.43738L4.93207 11.0582C4.82552 11.1609 4.74122 11.2828 4.684 11.4168C4.62679 11.5508 4.59779 11.6942 4.59867 11.8389ZM16.9691 2.65661L20.2226 5.76871L18.5901 7.33025L15.3366 4.21815L16.9691 2.65661ZM6.898 12.2898L13.7155 5.76871L16.9691 8.8808L10.1516 15.4019H6.898V12.2898Z" fill="#718096"/>
</svg>
