<svg width="57" height="57" viewBox="0 0 57 57" fill="none" xmlns="http://www.w3.org/2000/svg">
<g filter="url(#filter0_d_275_4307)">
<rect x="6.17969" y="2.5" width="45" height="45" rx="12" fill="#4FD1C5"/>
</g>
<path d="M21.6264 18.318H35.6889C35.8531 18.318 36.0172 18.3284 36.1802 18.3492C36.1249 17.9615 35.9918 17.589 35.7887 17.2542C35.5856 16.9194 35.3168 16.6291 34.9985 16.401C34.6802 16.1728 34.319 16.0115 33.9367 15.9267C33.5544 15.8419 33.1589 15.8354 32.774 15.9076L21.2089 17.8821H21.1957C20.4698 18.0209 19.8242 18.4317 19.3909 19.0304C20.0437 18.566 20.8252 18.317 21.6264 18.318Z" fill="white"/>
<path d="M35.689 19.375H21.6265C20.8808 19.3758 20.1659 19.6724 19.6386 20.1997C19.1114 20.7269 18.8148 21.4418 18.814 22.1875V30.625C18.8148 31.3707 19.1114 32.0856 19.6386 32.6128C20.1659 33.1401 20.8808 33.4367 21.6265 33.4375H35.689C36.4346 33.4367 37.1495 33.1401 37.6768 32.6128C38.2041 32.0856 38.5006 31.3707 38.5015 30.625V22.1875C38.5006 21.4418 38.2041 20.7269 37.6768 20.1997C37.1495 19.6724 36.4346 19.3758 35.689 19.375ZM33.6016 27.8125C33.3234 27.8125 33.0515 27.73 32.8203 27.5755C32.589 27.421 32.4088 27.2014 32.3024 26.9444C32.1959 26.6874 32.1681 26.4047 32.2223 26.1319C32.2766 25.8591 32.4105 25.6085 32.6072 25.4119C32.8039 25.2152 33.0544 25.0813 33.3272 25.027C33.6 24.9728 33.8827 25.0006 34.1397 25.107C34.3967 25.2135 34.6163 25.3937 34.7708 25.625C34.9253 25.8562 35.0078 26.1281 35.0078 26.4062C35.0078 26.7792 34.8596 27.1369 34.5959 27.4006C34.3322 27.6643 33.9745 27.8125 33.6016 27.8125Z" fill="white"/>
<path d="M18.8359 25.1514V20.7788C18.8359 19.8265 19.3633 18.23 21.1936 17.8841C22.7471 17.5928 24.2852 17.5928 24.2852 17.5928C24.2852 17.5928 25.2959 18.2959 24.4609 18.2959C23.626 18.2959 23.6479 19.3726 24.4609 19.3726C25.2739 19.3726 24.4609 20.4053 24.4609 20.4053L21.187 24.1187L18.8359 25.1514Z" fill="white"/>
<defs>
<filter id="filter0_d_275_4307" x="0.679687" y="0.5" width="56" height="56" filterUnits="userSpaceOnUse" color-interpolation-filters="sRGB">
<feFlood flood-opacity="0" result="BackgroundImageFix"/>
<feColorMatrix in="SourceAlpha" type="matrix" values="0 0 0 0 0 0 0 0 0 0 0 0 0 0 0 0 0 0 127 0" result="hardAlpha"/>
<feOffset dy="3.5"/>
<feGaussianBlur stdDeviation="2.75"/>
<feColorMatrix type="matrix" values="0 0 0 0 0 0 0 0 0 0 0 0 0 0 0 0 0 0 0.02 0"/>
<feBlend mode="normal" in2="BackgroundImageFix" result="effect1_dropShadow_275_4307"/>
<feBlend mode="normal" in="SourceGraphic" in2="effect1_dropShadow_275_4307" result="shape"/>
</filter>
</defs>
</svg>
