<svg width="151" height="36" viewBox="0 0 151 36" fill="none" xmlns="http://www.w3.org/2000/svg">
<rect x="0.5" y="0.5" width="150" height="35" rx="17.5" fill="white"/>
<g clip-path="url(#clip0_275_702)">
<g clip-path="url(#clip1_275_702)">
<path d="M33.5037 22.4976V13.7703H38.9157V14.9038H34.8205V17.5629H38.5279V18.6922H34.8205V22.4976H33.5037ZM40.3507 22.4976V15.9521H41.5822V16.9919H41.6504C41.7697 16.6396 41.9799 16.3626 42.2811 16.1609C42.585 15.9564 42.9288 15.8541 43.3123 15.8541C43.3919 15.8541 43.4856 15.8569 43.5936 15.8626C43.7044 15.8683 43.791 15.8754 43.8535 15.8839V17.1027C43.8024 17.0885 43.7115 17.0728 43.5808 17.0558C43.4501 17.0359 43.3194 17.026 43.1887 17.026C42.8876 17.026 42.6191 17.0899 42.3833 17.2177C42.1504 17.3427 41.9657 17.5174 41.8294 17.7419C41.693 17.9635 41.6248 18.2163 41.6248 18.5004V22.4976H40.3507ZM47.5428 22.6297C46.8979 22.6297 46.3425 22.4919 45.8766 22.2163C45.4135 21.9379 45.0556 21.5473 44.8027 21.0444C44.5527 20.5388 44.4277 19.9464 44.4277 19.2674C44.4277 18.597 44.5527 18.0061 44.8027 17.4947C45.0556 16.9834 45.4078 16.5842 45.8596 16.2973C46.3141 16.0103 46.8453 15.8669 47.4533 15.8669C47.8226 15.8669 48.1806 15.928 48.5272 16.0501C48.8738 16.1723 49.1848 16.364 49.4604 16.6254C49.736 16.8868 49.9533 17.2263 50.1124 17.6439C50.2715 18.0586 50.351 18.5629 50.351 19.1566V19.6084H45.1479V18.6538H49.1025C49.1025 18.3186 49.0343 18.0217 48.8979 17.7632C48.7615 17.5018 48.5698 17.2959 48.3226 17.1453C48.0783 16.9947 47.7914 16.9194 47.4618 16.9194C47.1039 16.9194 46.7914 17.0075 46.5243 17.1836C46.2601 17.3569 46.0556 17.5842 45.9107 17.8655C45.7686 18.1439 45.6976 18.4464 45.6976 18.7731V19.5189C45.6976 19.9564 45.7743 20.3285 45.9277 20.6353C46.084 20.9422 46.3013 21.1765 46.5797 21.3385C46.8581 21.4976 47.1834 21.5771 47.5556 21.5771C47.7971 21.5771 48.0172 21.543 48.2161 21.4748C48.415 21.4038 48.5868 21.2987 48.7317 21.1595C48.8766 21.0203 48.9874 20.8484 49.0641 20.6439L50.2701 20.8612C50.1735 21.2163 50.0002 21.5274 49.7502 21.7944C49.503 22.0586 49.1919 22.2646 48.8169 22.4123C48.4448 22.5572 48.0201 22.6297 47.5428 22.6297ZM54.5858 22.6297C53.9409 22.6297 53.3855 22.4919 52.9196 22.2163C52.4565 21.9379 52.0985 21.5473 51.8457 21.0444C51.5957 20.5388 51.4707 19.9464 51.4707 19.2674C51.4707 18.597 51.5957 18.0061 51.8457 17.4947C52.0985 16.9834 52.4508 16.5842 52.9025 16.2973C53.3571 16.0103 53.8883 15.8669 54.4963 15.8669C54.8656 15.8669 55.2235 15.928 55.5701 16.0501C55.9167 16.1723 56.2278 16.364 56.5034 16.6254C56.7789 16.8868 56.9963 17.2263 57.1554 17.6439C57.3145 18.0586 57.394 18.5629 57.394 19.1566V19.6084H52.1909V18.6538H56.1454C56.1454 18.3186 56.0772 18.0217 55.9409 17.7632C55.8045 17.5018 55.6127 17.2959 55.3656 17.1453C55.1213 16.9947 54.8343 16.9194 54.5048 16.9194C54.1468 16.9194 53.8343 17.0075 53.5673 17.1836C53.3031 17.3569 53.0985 17.5842 52.9537 17.8655C52.8116 18.1439 52.7406 18.4464 52.7406 18.7731V19.5189C52.7406 19.9564 52.8173 20.3285 52.9707 20.6353C53.127 20.9422 53.3443 21.1765 53.6227 21.3385C53.9011 21.4976 54.2264 21.5771 54.5985 21.5771C54.84 21.5771 55.0602 21.543 55.2591 21.4748C55.4579 21.4038 55.6298 21.2987 55.7747 21.1595C55.9196 21.0203 56.0304 20.8484 56.1071 20.6439L57.313 20.8612C57.2164 21.2163 57.0431 21.5274 56.7931 21.7944C56.546 22.0586 56.2349 22.2646 55.8599 22.4123C55.4877 22.5572 55.063 22.6297 54.5858 22.6297ZM64.911 22.4976H62.0858V13.7703H65.0005C65.8556 13.7703 66.59 13.945 67.2037 14.2944C67.8173 14.641 68.2875 15.1396 68.6142 15.7902C68.9437 16.4379 69.1085 17.2149 69.1085 18.1211C69.1085 19.0302 68.9423 19.8115 68.6099 20.4649C68.2804 21.1183 67.8031 21.6211 67.1781 21.9734C66.5531 22.3228 65.7974 22.4976 64.911 22.4976ZM63.4025 21.347H64.8386C65.5034 21.347 66.0559 21.222 66.4963 20.972C66.9366 20.7191 67.2662 20.3541 67.4849 19.8768C67.7037 19.3967 67.813 18.8115 67.813 18.1211C67.813 17.4365 67.7037 16.8555 67.4849 16.3782C67.269 15.901 66.9466 15.5388 66.5176 15.2916C66.0886 15.0444 65.5559 14.9209 64.9196 14.9209H63.4025V21.347ZM73.4007 22.6297C72.7871 22.6297 72.2516 22.489 71.7942 22.2078C71.3368 21.9265 70.9817 21.5331 70.7289 21.0274C70.476 20.5217 70.3496 19.9308 70.3496 19.2547C70.3496 18.5757 70.476 17.9819 70.7289 17.4734C70.9817 16.9649 71.3368 16.57 71.7942 16.2888C72.2516 16.0075 72.7871 15.8669 73.4007 15.8669C74.0144 15.8669 74.5499 16.0075 75.0073 16.2888C75.4647 16.57 75.8198 16.9649 76.0726 17.4734C76.3255 17.9819 76.4519 18.5757 76.4519 19.2547C76.4519 19.9308 76.3255 20.5217 76.0726 21.0274C75.8198 21.5331 75.4647 21.9265 75.0073 22.2078C74.5499 22.489 74.0144 22.6297 73.4007 22.6297ZM73.405 21.5601C73.8027 21.5601 74.1323 21.4549 74.3936 21.2447C74.655 21.0345 74.8482 20.7547 74.9732 20.4052C75.101 20.0558 75.165 19.6709 75.165 19.2504C75.165 18.8328 75.101 18.4493 74.9732 18.0998C74.8482 17.7476 74.655 17.4649 74.3936 17.2518C74.1323 17.0388 73.8027 16.9322 73.405 16.9322C73.0044 16.9322 72.6721 17.0388 72.4078 17.2518C72.1465 17.4649 71.9519 17.7476 71.824 18.0998C71.699 18.4493 71.6365 18.8328 71.6365 19.2504C71.6365 19.6709 71.699 20.0558 71.824 20.4052C71.9519 20.7547 72.1465 21.0345 72.4078 21.2447C72.6721 21.4549 73.0044 21.5601 73.405 21.5601ZM79.0939 22.4976L77.1678 15.9521H78.4846L79.7672 20.7589H79.8311L81.1181 15.9521H82.4348L83.7132 20.7376H83.7772L85.0513 15.9521H86.3681L84.4462 22.4976H83.1465L81.8169 17.7717H81.7189L80.3894 22.4976H79.0939ZM88.8514 18.6112V22.4976H87.5772V15.9521H88.8002V17.0174H88.8812C89.0318 16.6709 89.2676 16.3924 89.5886 16.1822C89.9125 15.972 90.3201 15.8669 90.8116 15.8669C91.2576 15.8669 91.6483 15.9606 91.9835 16.1481C92.3187 16.3328 92.5787 16.6084 92.7633 16.9748C92.948 17.3413 93.0403 17.7944 93.0403 18.3342V22.4976H91.7662V18.4876C91.7662 18.0132 91.6426 17.6424 91.3954 17.3754C91.1483 17.1055 90.8088 16.9706 90.377 16.9706C90.0815 16.9706 89.8187 17.0345 89.5886 17.1623C89.3613 17.2902 89.1809 17.4777 89.0474 17.7248C88.9167 17.9691 88.8514 18.2646 88.8514 18.6112ZM96.0233 13.7703V22.4976H94.7491V13.7703H96.0233ZM100.494 22.6297C99.8809 22.6297 99.3453 22.489 98.888 22.2078C98.4306 21.9265 98.0755 21.5331 97.8226 21.0274C97.5698 20.5217 97.4434 19.9308 97.4434 19.2547C97.4434 18.5757 97.5698 17.9819 97.8226 17.4734C98.0755 16.9649 98.4306 16.57 98.888 16.2888C99.3453 16.0075 99.8809 15.8669 100.494 15.8669C101.108 15.8669 101.644 16.0075 102.101 16.2888C102.558 16.57 102.914 16.9649 103.166 17.4734C103.419 17.9819 103.546 18.5757 103.546 19.2547C103.546 19.9308 103.419 20.5217 103.166 21.0274C102.914 21.5331 102.558 21.9265 102.101 22.2078C101.644 22.489 101.108 22.6297 100.494 22.6297ZM100.499 21.5601C100.896 21.5601 101.226 21.4549 101.487 21.2447C101.749 21.0345 101.942 20.7547 102.067 20.4052C102.195 20.0558 102.259 19.6709 102.259 19.2504C102.259 18.8328 102.195 18.4493 102.067 18.0998C101.942 17.7476 101.749 17.4649 101.487 17.2518C101.226 17.0388 100.896 16.9322 100.499 16.9322C100.098 16.9322 99.7658 17.0388 99.5016 17.2518C99.2402 17.4649 99.0456 17.7476 98.9178 18.0998C98.7928 18.4493 98.7303 18.8328 98.7303 19.2504C98.7303 19.6709 98.7928 20.0558 98.9178 20.4052C99.0456 20.7547 99.2402 21.0345 99.5016 21.2447C99.7658 21.4549 100.098 21.5601 100.499 21.5601ZM106.873 22.6424C106.458 22.6424 106.083 22.5657 105.748 22.4123C105.412 22.2561 105.147 22.0302 104.951 21.7348C104.758 21.4393 104.661 21.0771 104.661 20.6481C104.661 20.2788 104.732 19.9748 104.874 19.7362C105.016 19.4976 105.208 19.3086 105.449 19.1694C105.691 19.0302 105.961 18.9251 106.259 18.8541C106.557 18.7831 106.861 18.7291 107.171 18.6922C107.563 18.6467 107.881 18.6098 108.126 18.5814C108.37 18.5501 108.547 18.5004 108.658 18.4322C108.769 18.364 108.824 18.2532 108.824 18.0998V18.07C108.824 17.6978 108.719 17.4095 108.509 17.2049C108.302 17.0004 107.992 16.8981 107.58 16.8981C107.151 16.8981 106.813 16.9933 106.566 17.1836C106.322 17.3711 106.153 17.5799 106.059 17.8101L104.861 17.5373C105.003 17.1396 105.211 16.8186 105.483 16.5743C105.759 16.3271 106.076 16.1481 106.434 16.0373C106.792 15.9237 107.168 15.8669 107.563 15.8669C107.824 15.8669 108.101 15.8981 108.394 15.9606C108.689 16.0203 108.965 16.1311 109.221 16.293C109.479 16.4549 109.691 16.6865 109.856 16.9876C110.02 17.2859 110.103 17.6737 110.103 18.151V22.4976H108.858V21.6027H108.807C108.725 21.7674 108.601 21.9294 108.437 22.0885C108.272 22.2476 108.06 22.3797 107.802 22.4848C107.543 22.5899 107.233 22.6424 106.873 22.6424ZM107.15 21.6197C107.502 21.6197 107.803 21.5501 108.053 21.4109C108.306 21.2717 108.498 21.0899 108.628 20.8655C108.762 20.6382 108.829 20.3953 108.829 20.1368V19.293C108.783 19.3385 108.695 19.3811 108.564 19.4209C108.437 19.4578 108.29 19.4905 108.126 19.5189C107.961 19.5444 107.8 19.5686 107.644 19.5913C107.488 19.6112 107.357 19.6282 107.252 19.6424C107.005 19.6737 106.779 19.7263 106.574 19.8001C106.373 19.874 106.211 19.9805 106.089 20.1197C105.969 20.2561 105.91 20.4379 105.91 20.6652C105.91 20.9805 106.026 21.2191 106.259 21.3811C106.492 21.5402 106.789 21.6197 107.15 21.6197ZM114.25 22.6254C113.722 22.6254 113.25 22.4905 112.835 22.2206C112.423 21.9478 112.1 21.5601 111.864 21.0572C111.631 20.5515 111.514 19.945 111.514 19.2376C111.514 18.5302 111.632 17.9251 111.868 17.4223C112.107 16.9194 112.433 16.5345 112.848 16.2674C113.263 16.0004 113.733 15.8669 114.259 15.8669C114.665 15.8669 114.992 15.9351 115.239 16.0714C115.489 16.2049 115.682 16.3612 115.818 16.5402C115.958 16.7191 116.066 16.8768 116.142 17.0132H116.219V13.7703H117.493V22.4976H116.249V21.4791H116.142C116.066 21.6183 115.955 21.7774 115.81 21.9564C115.668 22.1353 115.472 22.2916 115.222 22.4251C114.972 22.5586 114.648 22.6254 114.25 22.6254ZM114.531 21.5388C114.898 21.5388 115.208 21.4422 115.46 21.249C115.716 21.053 115.909 20.7816 116.04 20.4351C116.173 20.0885 116.24 19.6851 116.24 19.2248C116.24 18.7703 116.175 18.3726 116.044 18.0316C115.914 17.6907 115.722 17.4251 115.469 17.2348C115.216 17.0444 114.904 16.9493 114.531 16.9493C114.148 16.9493 113.828 17.0487 113.573 17.2476C113.317 17.4464 113.124 17.7177 112.993 18.0615C112.865 18.4052 112.801 18.793 112.801 19.2248C112.801 19.6623 112.867 20.0558 112.997 20.4052C113.128 20.7547 113.321 21.0316 113.577 21.2362C113.835 21.4379 114.154 21.5388 114.531 21.5388Z" fill="#2D3748"/>
</g>
<g clip-path="url(#clip2_275_702)">
<rect x="75.4976" y="29.9976" width="0.00470312" height="0.00470312" fill="white"/>
</g>
</g>
<defs>
<clipPath id="clip0_275_702">
<rect width="89.5" height="24.0047" fill="white" transform="translate(30.75 5.99756)"/>
</clipPath>
<clipPath id="clip1_275_702">
<rect width="89.5" height="15" fill="white" transform="translate(30.75 10.4976)"/>
</clipPath>
<clipPath id="clip2_275_702">
<rect width="24.0047" height="0.00469579" fill="white" transform="translate(63.4976 29.9976)"/>
</clipPath>
</defs>
</svg>
