<svg width="218" height="173" viewBox="0 0 218 173" fill="none" xmlns="http://www.w3.org/2000/svg">
<rect width="218" height="172.5" rx="15" fill="#21A1A1"/>
<mask id="mask0_4_818" style="mask-type:alpha" maskUnits="userSpaceOnUse" x="0" y="0" width="218" height="173">
<rect width="218" height="172.5" rx="15" fill="#4FD1C5"/>
</mask>
<g mask="url(#mask0_4_818)">
<g opacity="0.2">
<path d="M397.5 172.246C397.5 271.884 318.134 352.642 220.25 352.642C122.366 352.642 43 271.884 43 172.246C43 72.6072 122.366 -8.15051 220.25 -8.15051C318.134 -8.15051 397.5 72.6072 397.5 172.246Z" stroke="white"/>
<path d="M373.468 172.246C373.468 258.377 304.862 328.185 220.25 328.185C135.638 328.185 67.0312 258.377 67.0312 172.246C67.0312 86.1144 135.638 16.3063 220.25 16.3063C304.862 16.3063 373.468 86.1144 373.468 172.246Z" stroke="white"/>
<path d="M346.122 172.246C346.122 243.007 289.758 300.355 220.249 300.355C150.74 300.355 94.377 243.007 94.377 172.246C94.377 101.485 150.74 44.1365 220.249 44.1365C289.758 44.1365 346.122 101.485 346.122 172.246Z" stroke="white"/>
<path d="M318.776 172.246C318.776 227.636 274.656 272.524 220.25 272.524C165.844 272.524 121.724 227.636 121.724 172.246C121.724 116.855 165.844 71.9667 220.25 71.9667C274.656 71.9667 318.776 116.855 318.776 172.246Z" stroke="white"/>
<path d="M292.259 172.246C292.259 212.732 260.011 245.538 220.25 245.538C180.489 245.538 148.241 212.732 148.241 172.246C148.241 131.759 180.489 98.9535 220.25 98.9535C260.011 98.9535 292.259 131.759 292.259 172.246Z" stroke="white"/>
<path d="M268.228 172.246C268.228 199.225 246.74 221.081 220.251 221.081C193.762 221.081 172.273 199.225 172.273 172.246C172.273 145.266 193.762 123.41 220.251 123.41C246.74 123.41 268.228 145.266 268.228 172.246Z" stroke="white"/>
<path d="M249 172.245C249 188.418 236.12 201.513 220.25 201.513C204.38 201.513 191.5 188.418 191.5 172.245C191.5 156.073 204.38 142.978 220.25 142.978C236.12 142.978 249 156.073 249 172.245Z" stroke="white"/>
</g>
</g>
</svg>
