<svg width="36" height="36" viewBox="0 0 36 36" fill="none" xmlns="http://www.w3.org/2000/svg">
<rect x="0.5" y="0.283264" width="35" height="35.6195" rx="12" fill="white"/>
<path d="M12 7.40704C9.51562 7.40704 7.5 9.45834 7.5 11.9867C7.5 14.515 9.51562 16.5663 12 16.5663C14.4844 16.5663 16.5 14.515 16.5 11.9867C16.5 9.45834 14.4844 7.40704 12 7.40704ZM11.8594 14.6581C11.7667 14.6581 11.676 14.6302 11.599 14.5778C11.5219 14.5253 11.4618 14.4508 11.4263 14.3637C11.3908 14.2765 11.3815 14.1806 11.3996 14.088C11.4177 13.9955 11.4624 13.9105 11.5279 13.8438C11.5935 13.7771 11.677 13.7316 11.7679 13.7132C11.8589 13.6948 11.9531 13.7043 12.0388 13.7404C12.1244 13.7765 12.1976 13.8376 12.2491 13.9161C12.3006 13.9945 12.3281 14.0868 12.3281 14.1811C12.3281 14.3076 12.2787 14.429 12.1908 14.5184C12.1029 14.6079 11.9837 14.6581 11.8594 14.6581ZM12.6431 12.2252C12.2632 12.4847 12.2109 12.7225 12.2109 12.9408C12.2109 13.0293 12.1764 13.1143 12.1148 13.1769C12.0533 13.2395 11.9698 13.2747 11.8828 13.2747C11.7958 13.2747 11.7123 13.2395 11.6508 13.1769C11.5893 13.1143 11.5547 13.0293 11.5547 12.9408C11.5547 12.4182 11.7909 12.0027 12.277 11.6704C12.7289 11.3618 12.9844 11.1662 12.9844 10.7361C12.9844 10.4437 12.8203 10.2216 12.4807 10.0573C12.4008 10.0186 12.2229 9.98095 12.004 9.98357C11.7293 9.98715 11.516 10.0539 11.3517 10.1885C11.0419 10.4423 11.0156 10.7185 11.0156 10.7225C11.0135 10.7664 11.003 10.8094 10.9846 10.8491C10.9662 10.8888 10.9403 10.9244 10.9083 10.9539C10.8764 10.9834 10.8391 11.0063 10.7985 11.0211C10.7578 11.0359 10.7148 11.0425 10.6717 11.0403C10.6286 11.0382 10.5863 11.0275 10.5473 11.0088C10.5083 10.99 10.4733 10.9637 10.4443 10.9312C10.4153 10.8987 10.3929 10.8607 10.3783 10.8193C10.3637 10.778 10.3573 10.7342 10.3594 10.6903C10.362 10.6324 10.4016 10.1102 10.9399 9.66944C11.2191 9.44093 11.5741 9.32215 11.9946 9.3169C12.2923 9.31332 12.5719 9.3646 12.7615 9.45572C13.3289 9.72883 13.6406 10.1842 13.6406 10.7361C13.6406 11.543 13.1107 11.9054 12.6431 12.2252Z" fill="#21A1A1"/>
</svg>
