<svg width="37" height="36" viewBox="0 0 37 36" fill="none" xmlns="http://www.w3.org/2000/svg">
<g filter="url(#filter0_d_275_4744)">
<rect x="5.99915" y="2" width="25" height="25" rx="6" fill="#21A1A1"/>
</g>
<path d="M23.7137 11.1931C23.6856 11.1384 23.6449 11.0911 23.5951 11.0551C23.5452 11.0191 23.4875 10.9953 23.4268 10.9858C23.366 10.9763 23.3038 10.9813 23.2453 11.0003C23.1869 11.0194 23.1337 11.052 23.0902 11.0955L21.5902 12.5964C21.5166 12.669 21.4173 12.7097 21.3139 12.7097C21.2106 12.7097 21.1113 12.669 21.0377 12.5964L20.3893 11.947C20.353 11.9108 20.3242 11.8677 20.3046 11.8203C20.2849 11.7729 20.2748 11.7221 20.2748 11.6708C20.2748 11.6195 20.2849 11.5687 20.3046 11.5213C20.3242 11.4739 20.353 11.4308 20.3893 11.3945L21.8829 9.90064C21.9277 9.85587 21.9609 9.80089 21.9797 9.74043C21.9985 9.67996 22.0023 9.61584 21.9909 9.55357C21.9794 9.4913 21.9529 9.43276 21.9138 9.38298C21.8747 9.3332 21.824 9.29368 21.7662 9.26783C20.638 8.76344 19.2298 9.02662 18.3419 9.90797C17.5875 10.657 17.3626 11.8274 17.7254 13.1191C17.745 13.188 17.7451 13.261 17.7258 13.3299C17.7064 13.3989 17.6684 13.4611 17.6158 13.5098L13.5514 17.2219C13.393 17.3641 13.2653 17.537 13.176 17.7302C13.0867 17.9233 13.0377 18.1326 13.0319 18.3454C13.0262 18.5581 13.0639 18.7697 13.1426 18.9674C13.2214 19.1651 13.3396 19.3447 13.49 19.4952C13.6404 19.6457 13.8199 19.764 14.0176 19.8428C14.2153 19.9217 14.4269 19.9594 14.6396 19.9538C14.8523 19.9481 15.0617 19.8992 15.2549 19.81C15.4481 19.7207 15.621 19.5931 15.7633 19.4348L19.5152 15.3613C19.5632 15.3095 19.6244 15.2717 19.6922 15.252C19.7601 15.2323 19.832 15.2316 19.9002 15.2498C20.268 15.3505 20.6474 15.4028 21.0287 15.4053C21.8441 15.4053 22.5597 15.1414 23.0758 14.6328C24.0316 13.6912 24.1773 12.094 23.7137 11.1931ZM14.6791 19.1675C14.5183 19.185 14.356 19.1522 14.2146 19.0736C14.0733 18.995 13.9598 18.8745 13.8898 18.7287C13.8199 18.5828 13.797 18.4189 13.8242 18.2594C13.8514 18.1 13.9274 17.9529 14.0418 17.8385C14.1561 17.7241 14.3031 17.648 14.4626 17.6208C14.622 17.5935 14.786 17.6164 14.9318 17.6863C15.0777 17.7562 15.1983 17.8696 15.2769 18.011C15.3556 18.1523 15.3884 18.3146 15.371 18.4753C15.3517 18.6523 15.2726 18.8173 15.1468 18.9432C15.021 19.069 14.856 19.1482 14.6791 19.1675Z" fill="white"/>
<defs>
<filter id="filter0_d_275_4744" x="0.499145" y="-2.38419e-07" width="36" height="36" filterUnits="userSpaceOnUse" color-interpolation-filters="sRGB">
<feFlood flood-opacity="0" result="BackgroundImageFix"/>
<feColorMatrix in="SourceAlpha" type="matrix" values="0 0 0 0 0 0 0 0 0 0 0 0 0 0 0 0 0 0 127 0" result="hardAlpha"/>
<feOffset dy="3.5"/>
<feGaussianBlur stdDeviation="2.75"/>
<feColorMatrix type="matrix" values="0 0 0 0 0 0 0 0 0 0 0 0 0 0 0 0 0 0 0.02 0"/>
<feBlend mode="normal" in2="BackgroundImageFix" result="effect1_dropShadow_275_4744"/>
<feBlend mode="normal" in="SourceGraphic" in2="effect1_dropShadow_275_4744" result="shape"/>
</filter>
</defs>
</svg>
