<svg width="88" height="81" viewBox="0 0 88 81" fill="none" xmlns="http://www.w3.org/2000/svg">
<rect x="0.0693359" y="0.5" width="87.6115" height="80" rx="12" fill="white"/>
<mask id="mask0_361_13183" style="mask-type:alpha" maskUnits="userSpaceOnUse" x="0" y="0" width="88" height="81">
<rect x="0.0693359" y="0.5" width="87.6115" height="80" rx="12" fill="white"/>
</mask>
<g mask="url(#mask0_361_13183)">
</g>
<path d="M61.9765 55.5223C61.8144 55.3434 61.6552 55.1646 61.499 54.992C59.3505 52.6123 58.0507 51.176 58.0507 44.4393C58.0507 40.9515 57.1396 38.0898 55.3437 35.9435C54.0195 34.3579 52.2294 33.1551 49.87 32.2661C49.8397 32.2507 49.8126 32.2304 49.79 32.2062C48.9413 29.6038 46.6191 27.8608 43.9999 27.8608C41.3808 27.8608 39.0595 29.6038 38.2109 32.2035C38.1882 32.2268 38.1615 32.2465 38.1318 32.2617C32.6259 34.3373 29.9501 38.3196 29.9501 44.4366C29.9501 51.176 28.6523 52.6123 26.5019 54.9893C26.3456 55.1619 26.1865 55.3372 26.0244 55.5196C25.6056 55.9821 25.3403 56.5447 25.2598 57.141C25.1793 57.7372 25.2871 58.342 25.5703 58.884C26.1728 60.0465 27.457 60.7682 28.9228 60.7682H59.0878C60.5468 60.7682 61.8222 60.0474 62.4267 58.8902C62.7111 58.3482 62.8198 57.7428 62.7401 57.1459C62.6603 56.549 62.3953 55.9855 61.9765 55.5223Z" fill="#21A1A1"/>
<path d="M43.9999 67.9259C45.4111 67.9249 46.7956 67.5741 48.0067 66.9108C49.2178 66.2474 50.2102 65.2963 50.8788 64.1583C50.9103 64.1037 50.9259 64.0426 50.924 63.981C50.9221 63.9193 50.9028 63.8591 50.868 63.8063C50.8332 63.7535 50.7841 63.7098 50.7254 63.6794C50.6667 63.6491 50.6005 63.6332 50.5331 63.6333H37.4687C37.4012 63.6331 37.3348 63.6489 37.276 63.6791C37.2172 63.7094 37.1679 63.753 37.133 63.8059C37.0981 63.8588 37.0788 63.919 37.0768 63.9807C37.0749 64.0425 37.0904 64.1036 37.122 64.1583C37.7905 65.2962 38.7828 66.2472 39.9937 66.9105C41.2046 67.5738 42.5889 67.9247 43.9999 67.9259Z" fill="#21A1A1"/>
</svg>
