<svg width="23" height="23" viewBox="0 0 23 23" fill="none" xmlns="http://www.w3.org/2000/svg">
<circle cx="11.5" cy="11.5" r="11.5" fill="#D9D9D9"/>
<path d="M13.4226 6.81818H15.267V13.4702C15.267 14.1993 15.0947 14.8407 14.75 15.3942C14.4086 15.9477 13.928 16.3802 13.3082 16.6918C12.6884 17 11.9643 17.1541 11.1357 17.1541C10.3037 17.1541 9.57789 17 8.9581 16.6918C8.33831 16.3802 7.85772 15.9477 7.51634 15.3942C7.17495 14.8407 7.00426 14.1993 7.00426 13.4702V6.81818H8.84872V13.3161C8.84872 13.7403 8.94152 14.1181 9.12713 14.4496C9.31605 14.781 9.5812 15.0412 9.92259 15.2301C10.264 15.4157 10.6683 15.5085 11.1357 15.5085C11.603 15.5085 12.0073 15.4157 12.3487 15.2301C12.6934 15.0412 12.9586 14.781 13.1442 14.4496C13.3298 14.1181 13.4226 13.7403 13.4226 13.3161V6.81818Z" fill="#21A1A1"/>
</svg>
