<svg width="16" height="16" viewBox="0 0 16 16" fill="none" xmlns="http://www.w3.org/2000/svg">
<path d="M10.2453 2.39199C9.67522 1.77646 8.87893 1.4375 8.00003 1.4375C7.11643 1.4375 6.31751 1.77441 5.75003 2.38613C5.1764 3.00459 4.8969 3.84512 4.96253 4.75273C5.09261 6.54336 6.4552 8 8.00003 8C9.54485 8 10.9051 6.54365 11.0372 4.75332C11.1037 3.85391 10.8225 3.01514 10.2453 2.39199Z" fill="#21A1A1"/>
<path d="M13.1564 14.5615H2.84392C2.70894 14.5633 2.57526 14.5349 2.45262 14.4785C2.32997 14.4221 2.22145 14.3391 2.13493 14.2354C1.9445 14.0078 1.86775 13.697 1.92458 13.3826C2.17185 12.0109 2.94353 10.8587 4.15642 10.0498C5.23396 9.33174 6.5989 8.93652 8.00016 8.93652C9.40143 8.93652 10.7664 9.33203 11.8439 10.0498C13.0568 10.8584 13.8285 12.0106 14.0757 13.3823C14.1326 13.6967 14.0558 14.0075 13.8654 14.2352C13.7789 14.3388 13.6704 14.4219 13.5478 14.4784C13.4251 14.5348 13.2914 14.5632 13.1564 14.5615Z" fill="#21A1A1"/>
</svg>
