<svg width="25" height="25" viewBox="0 0 25 25" fill="none" xmlns="http://www.w3.org/2000/svg">
<rect width="25" height="25" rx="12" fill="white"/>
<path d="M8.22043 19.4743L8.12342 19.45L8.22043 19.4743L9.02723 16.2472H14.0991L13.3925 19.0737C13.3925 19.0737 13.3925 19.0737 13.3925 19.0737C13.2817 19.5162 13.5508 19.9646 13.9933 20.0751C14.0604 20.0919 14.1278 20.1 14.194 20.1C14.5642 20.1 14.9008 19.8496 14.9946 19.4743L15.8014 16.2472H19.2742C19.7304 16.2472 20.1 15.8776 20.1 15.4215C20.1 14.9653 19.7304 14.5957 19.2742 14.5957H16.2143L17.2621 10.4048H19.2742C19.7304 10.4048 20.1 10.0352 20.1 9.57901C20.1 9.12284 19.7304 8.75323 19.2742 8.75323H17.675L18.3817 5.92675C18.4925 5.48432 18.2234 5.036 17.781 4.92545C17.3361 4.81284 16.8899 5.08428 16.7796 5.52623L15.9728 8.75323H10.9009L11.6075 5.92674C11.7183 5.48432 11.4492 5.03601 11.0069 4.92545C10.5617 4.81283 10.1157 5.08426 10.0054 5.5262C10.0054 5.52621 10.0054 5.52621 10.0054 5.52622L9.19857 8.75324H5.72579C5.26963 8.75324 4.9 9.12284 4.9 9.57902C4.9 10.0352 5.26963 10.4048 5.72579 10.4048H8.78566L7.73785 14.5957L5.72579 14.5957C5.26963 14.5957 4.9 14.9653 4.9 15.4215C4.9 15.8776 5.26963 16.2472 5.72579 16.2472H7.32495L6.61827 19.0737C6.61827 19.0737 6.61826 19.0737 6.61826 19.0737C6.50751 19.5162 6.77664 19.9646 7.21911 20.0751C7.2862 20.0919 7.35364 20.1 7.41984 20.1C7.78998 20.1 8.12658 19.8496 8.22043 19.4743ZM9.44016 14.5957L10.4879 10.4048H15.5598L14.5121 14.5957H9.44016Z" fill="#21A1A1" stroke="#21A1A1" stroke-width="0.2"/>
</svg>
