<svg width="12" height="12" viewBox="0 0 12 12" fill="none" xmlns="http://www.w3.org/2000/svg">
<g clip-path="url(#clip0_275_844)">
<path d="M7.89634 2.13502C7.47825 1.68363 6.89431 1.43506 6.24978 1.43506C5.60181 1.43506 5.01593 1.68213 4.59978 2.13072C4.17911 2.58426 3.97415 3.20064 4.02228 3.86623C4.11767 5.17935 5.11691 6.24756 6.24978 6.24756C7.38265 6.24756 8.38017 5.17957 8.47706 3.86666C8.52583 3.20709 8.31958 2.59199 7.89634 2.13502Z" fill="white"/>
<path d="M10.0309 11.0596H2.46838C2.3694 11.0609 2.27137 11.0401 2.18143 10.9987C2.09149 10.9573 2.01191 10.8964 1.94846 10.8204C1.80881 10.6535 1.75253 10.4256 1.7942 10.195C1.97553 9.18914 2.54143 8.34416 3.43088 7.75098C4.22108 7.22439 5.22204 6.93457 6.24963 6.93457C7.27723 6.93457 8.27819 7.22461 9.06838 7.75098C9.95783 8.34394 10.5237 9.18893 10.7051 10.1948C10.7467 10.4254 10.6905 10.6533 10.5508 10.8202C10.4874 10.8963 10.4078 10.9572 10.3179 10.9986C10.2279 11.04 10.1299 11.0608 10.0309 11.0596Z" fill="white"/>
</g>
<defs>
<clipPath id="clip0_275_844">
<rect width="11" height="11" fill="white" transform="translate(0.749756 0.747559)"/>
</clipPath>
</defs>
</svg>
