<svg width="12" height="12" viewBox="0 0 12 12" fill="none" xmlns="http://www.w3.org/2000/svg">
<path d="M5.4355 4.33959C5.4355 4.61889 5.4355 4.88959 5.52358 5.14311C4.59761 6.23021 2.15269 9.10267 1.92495 9.32182C1.87969 9.36243 1.84348 9.41211 1.81868 9.46763C1.79388 9.52315 1.78104 9.58327 1.78101 9.64408C1.78101 9.8267 1.89272 10.0029 1.98726 10.1017C2.12905 10.2499 2.73491 10.8107 2.84663 10.7033C3.17749 10.381 3.24409 10.2951 3.37944 10.1619C3.58354 9.96205 3.35796 9.55385 3.42886 9.38842C3.49976 9.22299 3.57495 9.19076 3.69741 9.16498C3.81987 9.1392 4.03686 9.22728 4.20659 9.22943C4.38491 9.23158 4.48159 9.15639 4.61479 9.03178C4.72222 8.93295 4.79956 8.84057 4.80171 8.69662C4.80601 8.50326 4.52671 8.2476 4.73511 8.0435C4.94351 7.83939 5.24429 8.1767 5.46558 8.15092C5.68686 8.12514 5.95542 7.81791 5.98335 7.68685C6.01128 7.5558 5.73198 7.21849 5.77495 7.02728C5.78999 6.96283 5.92104 6.81244 6.01987 6.79096C6.1187 6.76947 6.55698 6.9392 6.65581 6.91771C6.77612 6.89193 6.91577 6.76517 7.02964 6.69428C7.36265 6.83822 7.66558 6.89623 8.05444 6.89623C9.52612 6.89623 10.7185 5.74896 10.7185 4.33529C10.7185 2.92162 9.52612 1.7793 8.05444 1.7793C6.58276 1.7793 5.4355 2.92592 5.4355 4.33959ZM9.34351 3.8418C9.34351 3.97777 9.30318 4.11069 9.22764 4.22375C9.1521 4.33681 9.04472 4.42493 8.9191 4.47696C8.79348 4.529 8.65524 4.54261 8.52188 4.51609C8.38852 4.48956 8.26602 4.42408 8.16987 4.32793C8.07372 4.23178 8.00824 4.10928 7.98172 3.97592C7.95519 3.84256 7.9688 3.70433 8.02084 3.5787C8.07287 3.45308 8.16099 3.3457 8.27405 3.27016C8.38711 3.19462 8.52003 3.1543 8.65601 3.1543C8.83834 3.1543 9.01321 3.22673 9.14214 3.35566C9.27107 3.48459 9.34351 3.65946 9.34351 3.8418Z" fill="white"/>
</svg>
