<svg width="12" height="12" viewBox="0 0 12 12" fill="none" xmlns="http://www.w3.org/2000/svg">
<path d="M5.74951 1.77832C3.28547 1.77832 1.28076 3.78303 1.28076 6.24707C1.28076 8.71111 3.28547 10.7158 5.74951 10.7158C8.21355 10.7158 10.2183 8.71111 10.2183 6.24707C10.2183 3.78303 8.21355 1.77832 5.74951 1.77832ZM4.67057 4.28812C4.94277 3.99959 5.32584 3.84082 5.74951 3.84082C6.17318 3.84082 6.55281 4.00066 6.82609 4.2907C7.10303 4.58461 7.23773 4.97949 7.20594 5.40402C7.14234 6.24707 6.48922 6.93457 5.74951 6.93457C5.0098 6.93457 4.35539 6.24707 4.29309 5.40381C4.2615 4.97584 4.396 4.57967 4.67057 4.28812ZM5.74951 10.0283C5.24473 10.0287 4.74502 9.92762 4.28001 9.73121C3.81501 9.5348 3.39418 9.24702 3.04248 8.88492C3.24391 8.59767 3.50056 8.35343 3.79744 8.16648C4.34508 7.81543 5.03816 7.62207 5.74951 7.62207C6.46086 7.62207 7.15394 7.81543 7.70094 8.16648C7.99806 8.35335 8.25494 8.59759 8.45654 8.88492C8.10487 9.24706 7.68405 9.53487 7.21904 9.73128C6.75403 9.92769 6.2543 10.0287 5.74951 10.0283Z" fill="white"/>
</svg>
