<svg width="17" height="16" viewBox="0 0 17 16" fill="none" xmlns="http://www.w3.org/2000/svg">
<path d="M14.5 5.16675H2.5C2.22667 5.16675 2 4.94008 2 4.66675C2 4.39341 2.22667 4.16675 2.5 4.16675H14.5C14.7733 4.16675 15 4.39341 15 4.66675C15 4.94008 14.7733 5.16675 14.5 5.16675Z" fill="#00092E"/>
<path d="M12.5 8.5H4.5C4.22667 8.5 4 8.27333 4 8C4 7.72667 4.22667 7.5 4.5 7.5H12.5C12.7733 7.5 13 7.72667 13 8C13 8.27333 12.7733 8.5 12.5 8.5Z" fill="#00092E"/>
<path d="M9.83332 11.8333H7.16666C6.89332 11.8333 6.66666 11.6066 6.66666 11.3333C6.66666 11.0599 6.89332 10.8333 7.16666 10.8333H9.83332C10.1067 10.8333 10.3333 11.0599 10.3333 11.3333C10.3333 11.6066 10.1067 11.8333 9.83332 11.8333Z" fill="#00092E"/>
</svg>
