<svg width="17" height="16" viewBox="0 0 17 16" fill="none" xmlns="http://www.w3.org/2000/svg">
<path d="M14.5 5.16667H2.5C2.22667 5.16667 2 4.94 2 4.66667C2 4.39333 2.22667 4.16667 2.5 4.16667H14.5C14.7733 4.16667 15 4.39333 15 4.66667C15 4.94 14.7733 5.16667 14.5 5.16667Z" fill="#00092E"/>
<path d="M12.5 8.5H4.5C4.22667 8.5 4 8.27333 4 8C4 7.72667 4.22667 7.5 4.5 7.5H12.5C12.7733 7.5 13 7.72667 13 8C13 8.27333 12.7733 8.5 12.5 8.5Z" fill="#00092E"/>
<path d="M9.83317 11.8333H7.1665C6.89317 11.8333 6.6665 11.6067 6.6665 11.3333C6.6665 11.06 6.89317 10.8333 7.1665 10.8333H9.83317C10.1065 10.8333 10.3332 11.06 10.3332 11.3333C10.3332 11.6067 10.1065 11.8333 9.83317 11.8333Z" fill="#00092E"/>
</svg>
