<svg width="13" height="15" viewBox="0 0 13 15" fill="none" xmlns="http://www.w3.org/2000/svg">
<path fill-rule="evenodd" clip-rule="evenodd" d="M12.3214 8.57143H0.535714C0.241071 8.57143 0 8.8125 0 9.10714V10.1786C0 10.3207 0.0564413 10.4569 0.156907 10.5574C0.257373 10.6578 0.393634 10.7143 0.535714 10.7143H12.3214C12.4635 10.7143 12.5998 10.6578 12.7002 10.5574C12.8007 10.4569 12.8571 10.3207 12.8571 10.1786V9.10714C12.8571 8.96506 12.8007 8.8288 12.7002 8.72834C12.5998 8.62787 12.4635 8.57143 12.3214 8.57143ZM12.3214 4.28571H0.535714C0.241071 4.28571 0 4.52679 0 4.82143V5.89286C0 6.03494 0.0564413 6.1712 0.156907 6.27166C0.257373 6.37213 0.393634 6.42857 0.535714 6.42857H12.3214C12.4635 6.42857 12.5998 6.37213 12.7002 6.27166C12.8007 6.1712 12.8571 6.03494 12.8571 5.89286V4.82143C12.8571 4.67935 12.8007 4.54309 12.7002 4.44262C12.5998 4.34216 12.4635 4.28571 12.3214 4.28571ZM6.96429 12.8571H0.535714C0.241071 12.8571 0 13.0982 0 13.3929V14.4643C0 14.6064 0.0564413 14.7426 0.156907 14.8431C0.257373 14.9436 0.393634 15 0.535714 15H6.96429C7.10637 15 7.24263 14.9436 7.34309 14.8431C7.44356 14.7426 7.5 14.6064 7.5 14.4643V13.3929C7.5 13.2508 7.44356 13.1145 7.34309 13.014C7.24263 12.9136 7.10637 12.8571 6.96429 12.8571ZM12.3214 0H0.535714C0.241071 0 0 0.241071 0 0.535714V1.60714C0 1.74922 0.0564413 1.88548 0.156907 1.98595C0.257373 2.08642 0.393634 2.14286 0.535714 2.14286H12.3214C12.4635 2.14286 12.5998 2.08642 12.7002 1.98595C12.8007 1.88548 12.8571 1.74922 12.8571 1.60714V0.535714C12.8571 0.393634 12.8007 0.257373 12.7002 0.156907C12.5998 0.0564413 12.4635 0 12.3214 0Z" fill="#21A1A1"/>
</svg>
