<svg width="37" height="36" viewBox="0 0 37 36" fill="none" xmlns="http://www.w3.org/2000/svg">
<g filter="url(#filter0_d_275_4774)">
<rect x="5.99915" y="2" width="25" height="25" rx="6" fill="#21A1A1"/>
</g>
<path d="M14.5817 10.7876H22.3942C22.4854 10.7876 22.5766 10.7934 22.6671 10.805C22.6364 10.5896 22.5624 10.3826 22.4496 10.1966C22.3368 10.0106 22.1875 9.84935 22.0106 9.7226C21.8338 9.59585 21.6332 9.50622 21.4208 9.45912C21.2084 9.41201 20.9886 9.40841 20.7748 9.44853L14.3497 10.5455H14.3424C13.9391 10.6226 13.5805 10.8508 13.3397 11.1834C13.7024 10.9254 14.1366 10.7871 14.5817 10.7876Z" fill="white"/>
<path d="M22.3942 11.375H14.5817C14.1674 11.3755 13.7702 11.5402 13.4773 11.8331C13.1844 12.1261 13.0196 12.5232 13.0192 12.9375V17.625C13.0196 18.0393 13.1844 18.4364 13.4773 18.7294C13.7702 19.0223 14.1674 19.187 14.5817 19.1875H22.3942C22.8084 19.187 23.2056 19.0223 23.4985 18.7294C23.7914 18.4364 23.9562 18.0393 23.9567 17.625V12.9375C23.9562 12.5232 23.7914 12.1261 23.4985 11.8331C23.2056 11.5402 22.8084 11.3755 22.3942 11.375ZM21.2345 16.0625C21.08 16.0625 20.9289 16.0167 20.8005 15.9308C20.672 15.845 20.5718 15.723 20.5127 15.5802C20.4536 15.4375 20.4381 15.2804 20.4683 15.1288C20.4984 14.9773 20.5728 14.8381 20.6821 14.7288C20.7913 14.6196 20.9305 14.5452 21.0821 14.515C21.2336 14.4849 21.3907 14.5003 21.5335 14.5595C21.6762 14.6186 21.7982 14.7187 21.8841 14.8472C21.9699 14.9757 22.0157 15.1267 22.0157 15.2812C22.0157 15.4884 21.9334 15.6872 21.7869 15.8337C21.6404 15.9802 21.4417 16.0625 21.2345 16.0625Z" fill="white"/>
<path d="M13.0314 14.584V12.1548C13.0314 11.6257 13.3243 10.7388 14.3412 10.5466C15.2042 10.3848 16.0587 10.3848 16.0587 10.3848C16.0587 10.3848 16.6202 10.7754 16.1564 10.7754C15.6925 10.7754 15.7047 11.3735 16.1564 11.3735C16.608 11.3735 16.1564 11.9473 16.1564 11.9473L14.3375 14.0103L13.0314 14.584Z" fill="white"/>
<defs>
<filter id="filter0_d_275_4774" x="0.499145" y="-2.38419e-07" width="36" height="36" filterUnits="userSpaceOnUse" color-interpolation-filters="sRGB">
<feFlood flood-opacity="0" result="BackgroundImageFix"/>
<feColorMatrix in="SourceAlpha" type="matrix" values="0 0 0 0 0 0 0 0 0 0 0 0 0 0 0 0 0 0 127 0" result="hardAlpha"/>
<feOffset dy="3.5"/>
<feGaussianBlur stdDeviation="2.75"/>
<feColorMatrix type="matrix" values="0 0 0 0 0 0 0 0 0 0 0 0 0 0 0 0 0 0 0.02 0"/>
<feBlend mode="normal" in2="BackgroundImageFix" result="effect1_dropShadow_275_4774"/>
<feBlend mode="normal" in="SourceGraphic" in2="effect1_dropShadow_275_4774" result="shape"/>
</filter>
</defs>
</svg>
