<svg width="12" height="11" viewBox="0 0 12 11" fill="none" xmlns="http://www.w3.org/2000/svg">
<path d="M0.17331 1.93019L4.88691 10.0743C4.9999 10.2695 5.16222 10.4315 5.35758 10.5441C5.55295 10.6568 5.77449 10.7161 6 10.7161C6.22551 10.7161 6.44705 10.6568 6.64242 10.5441C6.83778 10.4315 7.0001 10.2695 7.11309 10.0743H7.11268L11.8267 1.93019C11.94 1.73476 11.9997 1.51293 12 1.28705C12.0003 1.06117 11.941 0.839203 11.8282 0.643506C11.7154 0.447809 11.553 0.28529 11.3574 0.172314C11.1618 0.0593367 10.9399 -0.000109673 10.714 -3.8147e-05L1.28599 -3.8147e-05C1.0601 -0.000109673 0.838189 0.0593367 0.642589 0.172314C0.446989 0.28529 0.284609 0.447809 0.171801 0.643506C0.0589914 0.839203 -0.000264168 1.06117 9.53674e-07 1.28705C0.000266075 1.51293 0.0600424 1.73476 0.17331 1.93019Z" fill="#21A1A1"/>
</svg>
