<svg width="37" height="36" viewBox="0 0 37 36" fill="none" xmlns="http://www.w3.org/2000/svg">
<g filter="url(#filter0_d_275_4764)">
<rect x="5.99915" y="2" width="25" height="25" rx="6" fill="#21A1A1"/>
</g>
<path d="M23.9112 9.18441C23.9067 9.16282 23.8962 9.14294 23.8808 9.12712C23.8655 9.11129 23.8459 9.10017 23.8245 9.09505C22.3946 8.74544 19.0906 9.99129 17.3006 11.7806C16.9813 12.0973 16.6902 12.4412 16.4307 12.8084C15.8787 12.7596 15.3267 12.8004 14.8562 13.0055C13.5288 13.5897 13.1424 15.1141 13.0347 15.7699C13.0286 15.8057 13.0309 15.8426 13.0414 15.8774C13.052 15.9123 13.0704 15.9442 13.0954 15.9707C13.1204 15.9972 13.1511 16.0176 13.1853 16.0302C13.2195 16.0427 13.2561 16.0472 13.2923 16.0433L15.4239 15.8082C15.4254 15.9689 15.4351 16.1294 15.4529 16.2891C15.4636 16.4001 15.5129 16.5037 15.5921 16.5821L16.4175 17.4056C16.496 17.4847 16.5996 17.5339 16.7105 17.5448C16.8693 17.5625 17.0289 17.5722 17.1888 17.5738L16.9549 19.7027C16.951 19.7389 16.9555 19.7755 16.9681 19.8096C16.9807 19.8438 17.0011 19.8745 17.0276 19.8995C17.0541 19.9244 17.086 19.9429 17.1208 19.9534C17.1556 19.964 17.1924 19.9663 17.2283 19.9603C17.8828 19.8553 19.4099 19.4688 19.9908 18.1414C20.1958 17.671 20.2378 17.1217 20.1905 16.5723C20.5586 16.3128 20.9034 16.0216 21.221 15.7022C23.0166 13.9156 24.2554 10.6854 23.9112 9.18441ZM19.4295 13.5709C19.2655 13.407 19.1538 13.1982 19.1085 12.9709C19.0633 12.7435 19.0864 12.5079 19.1751 12.2937C19.2638 12.0795 19.414 11.8964 19.6067 11.7676C19.7994 11.6388 20.026 11.5701 20.2578 11.5701C20.4897 11.5701 20.7163 11.6388 20.909 11.7676C21.1017 11.8964 21.2519 12.0795 21.3406 12.2937C21.4293 12.5079 21.4524 12.7435 21.4071 12.9709C21.3619 13.1982 21.2502 13.407 21.0862 13.5709C20.9775 13.6798 20.8484 13.7661 20.7062 13.8251C20.5641 13.884 20.4117 13.9144 20.2578 13.9144C20.104 13.9144 19.9516 13.884 19.8095 13.8251C19.6673 13.7661 19.5382 13.6798 19.4295 13.5709Z" fill="white"/>
<path d="M16.3613 18.0022C16.2275 18.1362 16.0129 18.1885 15.7546 18.2332C15.1743 18.332 14.6619 17.8306 14.7661 17.2439C14.8059 17.0215 14.9236 16.7097 14.9968 16.6365C15.0128 16.6208 15.0235 16.6004 15.0273 16.5783C15.0311 16.5562 15.0278 16.5335 15.0179 16.5134C15.0081 16.4932 14.9921 16.4767 14.9723 16.4662C14.9525 16.4556 14.9299 16.4516 14.9077 16.4546C14.5832 16.4943 14.2813 16.6414 14.05 16.8726C13.4761 17.447 13.4219 19.5786 13.4219 19.5786C13.4219 19.5786 15.5547 19.5244 16.1287 18.95C16.3605 18.7189 16.5078 18.4165 16.5469 18.0916C16.5559 17.9895 16.4316 17.9287 16.3613 18.0022Z" fill="white"/>
<defs>
<filter id="filter0_d_275_4764" x="0.499145" y="-2.38419e-07" width="36" height="36" filterUnits="userSpaceOnUse" color-interpolation-filters="sRGB">
<feFlood flood-opacity="0" result="BackgroundImageFix"/>
<feColorMatrix in="SourceAlpha" type="matrix" values="0 0 0 0 0 0 0 0 0 0 0 0 0 0 0 0 0 0 127 0" result="hardAlpha"/>
<feOffset dy="3.5"/>
<feGaussianBlur stdDeviation="2.75"/>
<feColorMatrix type="matrix" values="0 0 0 0 0 0 0 0 0 0 0 0 0 0 0 0 0 0 0.02 0"/>
<feBlend mode="normal" in2="BackgroundImageFix" result="effect1_dropShadow_275_4764"/>
<feBlend mode="normal" in="SourceGraphic" in2="effect1_dropShadow_275_4764" result="shape"/>
</filter>
</defs>
</svg>
